<svg width="400" height="400" viewBox="0 0 400 400" fill="none" xmlns="http://www.w3.org/2000/svg">
<g clip-path="url(#clip0_33_5)">
<rect width="400" height="400" fill="white"/>
<g filter="url(#filter0_f_33_5)">
<rect x="210" y="210" width="21" height="190" transform="rotate(-90 210 210)" fill="#FDF874"/>
</g>
<g filter="url(#filter1_f_33_5)">
<circle cx="199" cy="200" r="21" fill="white" fill-opacity="0.82"/>
</g>
<path d="M0 0H349L200 200H0V0Z" fill="#98FFAF"/>
<path d="M0 54.5L200 200V400H0V54.5Z" fill="#98CFFF"/>
<path d="M200 200H400V400H64.5L200 200Z" fill="#FF98DD"/>
<path d="M339 0H400V337L200 200L339 0Z" fill="#FDF874"/>
<g filter="url(#filter2_f_33_5)">
<rect x="-12" y="64.2031" width="21" height="247.708" transform="rotate(-55 -12 64.2031)" fill="#98CFFF"/>
</g>
<g filter="url(#filter3_f_33_5)">
<rect x="334.715" y="-12" width="21" height="248.759" transform="rotate(35 334.715 -12)" fill="#98FFAF"/>
</g>
<g filter="url(#filter4_f_33_5)">
<rect x="196.197" y="213.143" width="21" height="253.496" transform="rotate(-55 196.197 213.143)" fill="#FDF874"/>
</g>
<g filter="url(#filter5_f_33_5)">
<rect x="188.617" y="204.377" width="21" height="243.415" transform="rotate(35 188.617 204.377)" fill="#FF98DD"/>
</g>
<g filter="url(#filter6_f_33_5)">
<circle cx="200" cy="204" r="22" fill="white"/>
</g>
</g>
<defs>
<filter id="filter0_f_33_5" x="200" y="179" width="210" height="41" filterUnits="userSpaceOnUse" color-interpolation-filters="sRGB">
<feFlood flood-opacity="0" result="BackgroundImageFix"/>
<feBlend mode="normal" in="SourceGraphic" in2="BackgroundImageFix" result="shape"/>
<feGaussianBlur stdDeviation="5" result="effect1_foregroundBlur_33_5"/>
</filter>
<filter id="filter1_f_33_5" x="168" y="169" width="62" height="62" filterUnits="userSpaceOnUse" color-interpolation-filters="sRGB">
<feFlood flood-opacity="0" result="BackgroundImageFix"/>
<feBlend mode="normal" in="SourceGraphic" in2="BackgroundImageFix" result="shape"/>
<feGaussianBlur stdDeviation="5" result="effect1_foregroundBlur_33_5"/>
</filter>
<filter id="filter2_f_33_5" x="-22" y="37" width="234.956" height="179.283" filterUnits="userSpaceOnUse" color-interpolation-filters="sRGB">
<feFlood flood-opacity="0" result="BackgroundImageFix"/>
<feBlend mode="normal" in="SourceGraphic" in2="BackgroundImageFix" result="shape"/>
<feGaussianBlur stdDeviation="5" result="effect1_foregroundBlur_33_5"/>
</filter>
<filter id="filter3_f_33_5" x="182.033" y="-22" width="179.884" height="235.816" filterUnits="userSpaceOnUse" color-interpolation-filters="sRGB">
<feFlood flood-opacity="0" result="BackgroundImageFix"/>
<feBlend mode="normal" in="SourceGraphic" in2="BackgroundImageFix" result="shape"/>
<feGaussianBlur stdDeviation="5" result="effect1_foregroundBlur_33_5"/>
</filter>
<filter id="filter4_f_33_5" x="186.197" y="185.939" width="239.697" height="182.604" filterUnits="userSpaceOnUse" color-interpolation-filters="sRGB">
<feFlood flood-opacity="0" result="BackgroundImageFix"/>
<feBlend mode="normal" in="SourceGraphic" in2="BackgroundImageFix" result="shape"/>
<feGaussianBlur stdDeviation="5" result="effect1_foregroundBlur_33_5"/>
</filter>
<filter id="filter5_f_33_5" x="39" y="194.377" width="176.819" height="231.439" filterUnits="userSpaceOnUse" color-interpolation-filters="sRGB">
<feFlood flood-opacity="0" result="BackgroundImageFix"/>
<feBlend mode="normal" in="SourceGraphic" in2="BackgroundImageFix" result="shape"/>
<feGaussianBlur stdDeviation="5" result="effect1_foregroundBlur_33_5"/>
</filter>
<filter id="filter6_f_33_5" x="171" y="175" width="58" height="58" filterUnits="userSpaceOnUse" color-interpolation-filters="sRGB">
<feFlood flood-opacity="0" result="BackgroundImageFix"/>
<feBlend mode="normal" in="SourceGraphic" in2="BackgroundImageFix" result="shape"/>
<feGaussianBlur stdDeviation="3.5" result="effect1_foregroundBlur_33_5"/>
</filter>
<clipPath id="clip0_33_5">
<rect width="400" height="400" fill="white"/>
</clipPath>
</defs>
</svg>
