<svg width="132" height="119" viewBox="0 0 132 119" fill="none" xmlns="http://www.w3.org/2000/svg">
<path d="M72.0254 1.5C103.845 1.5 129.641 27.2952 129.641 59.1152C129.641 90.9353 103.845 116.73 72.0254 116.73C59.7529 116.73 42.5343 113.337 28.2393 107.438C21.095 104.489 14.764 100.949 10.1621 96.96C5.54794 92.9607 2.82643 88.6512 2.52734 84.1592C2.03397 76.7478 4.81852 69.5589 8.5957 62.2441C10.4865 58.5826 12.5697 54.9881 14.5938 51.3037C16.6015 47.649 18.5261 43.9472 20.0068 40.2031C28.6619 18.3195 48.5079 1.50015 72.0254 1.5Z" fill="#F5C1BA" stroke="#443623" stroke-width="3"/>
<ellipse cx="54.236" cy="45.3981" rx="4.89906" ry="7.5119" fill="#443623"/>
<ellipse cx="88.8576" cy="45.3981" rx="4.89906" ry="7.5119" fill="#443623"/>
<path d="M83.9563 66.7938C83.9563 70.3092 78.546 73.1591 71.872 73.1591C65.1979 73.1591 59.7876 70.3092 59.7876 66.7938C59.7876 63.2783 65.1979 70.5462 71.872 70.5462C78.546 70.5462 83.9563 63.2783 83.9563 66.7938Z" fill="#443623"/>
</svg>
