<svg width="103" height="103" viewBox="0 0 103 103" fill="none" xmlns="http://www.w3.org/2000/svg">
<path d="M44.1387 15.75C47.4103 10.0833 55.5897 10.0833 58.8613 15.75L86.1406 63C89.4122 68.6665 85.3233 75.7497 78.7803 75.75H24.2197C17.7789 75.7497 13.7157 68.8861 16.7109 63.2666L16.8594 63L44.1387 15.75Z" fill="#9AC6E4" stroke="#462B18" stroke-width="3"/>
<ellipse cx="42.1371" cy="44.2172" rx="2.60101" ry="3.98822" fill="#443623"/>
<ellipse cx="60.517" cy="44.2172" rx="2.60101" ry="3.98822" fill="#443623"/>
<path d="M57.9161 55.5767C57.9161 57.4432 55.0437 58.9562 51.5003 58.9562C47.9569 58.9562 45.0845 57.4432 45.0845 55.5767C45.0845 53.7103 47.9569 57.569 51.5003 57.569C55.0437 57.569 57.9161 53.7103 57.9161 55.5767Z" fill="#443623"/>
</svg>
