<svg width="141" height="141" viewBox="0 0 141 141" fill="none" xmlns="http://www.w3.org/2000/svg">
<path d="M58.1123 27.9189C63.0643 17.8851 77.3722 17.8851 82.3242 27.9189L86.0195 35.4062C88.423 40.2761 93.0691 43.6517 98.4434 44.4326L106.706 45.6338C117.779 47.2428 122.201 60.8499 114.188 68.6602L108.209 74.4883C104.32 78.2789 102.546 83.7412 103.464 89.0938L104.875 97.3232C106.766 108.351 95.1911 116.762 85.2871 111.555L77.8965 107.669C73.0897 105.142 67.3469 105.142 62.54 107.669L55.1494 111.555C45.2454 116.762 33.67 108.351 35.5615 97.3232L36.9727 89.0938C37.8907 83.7412 36.1164 78.2789 32.2275 74.4883L26.248 68.6602C18.2357 60.85 22.6568 47.2431 33.7295 45.6338L41.9932 44.4326C47.3674 43.6517 52.0136 40.2761 54.417 35.4062L58.1123 27.9189Z" fill="#FCCB52" stroke="#443623" stroke-width="3"/>
<ellipse cx="57.3634" cy="61.6489" rx="3.57041" ry="5.47463" fill="#443623"/>
<ellipse cx="82.5968" cy="61.6489" rx="3.57041" ry="5.47463" fill="#443623"/>
<path d="M79.0256 77.2423C79.0256 79.8044 75.0826 81.8813 70.2186 81.8813C65.3547 81.8813 61.4116 79.8044 61.4116 77.2423C61.4116 74.6803 65.3547 79.9771 70.2186 79.9771C75.0826 79.9771 79.0256 74.6803 79.0256 77.2423Z" fill="#443623"/>
</svg>
