<svg width="412" height="917" viewBox="0 0 412 917" fill="none" xmlns="http://www.w3.org/2000/svg">
<g filter="url(#filter0_n_142_2)">
<rect width="412" height="917" fill="#FFFDEB"/>
<path d="M143.803 308.422H144.923V321.092H143.803V308.422ZM141.787 313.434H144.223V314.4H141.787V313.434ZM140.989 308.688H142.095V320.448H140.989V308.688ZM134.605 309.892H139.435V317.69H134.605V309.892ZM138.343 310.816H135.697V316.766H138.343V310.816ZM150.592 308.884C151.227 308.884 151.787 309.005 152.272 309.248C152.767 309.481 153.154 309.808 153.434 310.228C153.714 310.648 153.854 311.138 153.854 311.698C153.854 312.249 153.714 312.739 153.434 313.168C153.154 313.588 152.767 313.915 152.272 314.148C151.787 314.381 151.227 314.498 150.592 314.498C149.967 314.498 149.407 314.381 148.912 314.148C148.417 313.915 148.025 313.588 147.736 313.168C147.456 312.739 147.316 312.249 147.316 311.698C147.316 311.138 147.456 310.648 147.736 310.228C148.025 309.808 148.417 309.481 148.912 309.248C149.407 309.005 149.967 308.884 150.592 308.884ZM150.592 309.85C150.181 309.85 149.813 309.929 149.486 310.088C149.169 310.237 148.917 310.452 148.73 310.732C148.543 311.012 148.45 311.334 148.45 311.698C148.45 312.062 148.543 312.384 148.73 312.664C148.917 312.935 149.169 313.149 149.486 313.308C149.813 313.467 150.181 313.546 150.592 313.546C151.003 313.546 151.367 313.467 151.684 313.308C152.011 313.149 152.267 312.935 152.454 312.664C152.641 312.384 152.734 312.062 152.734 311.698C152.734 311.334 152.641 311.012 152.454 310.732C152.267 310.452 152.011 310.237 151.684 310.088C151.367 309.929 151.003 309.85 150.592 309.85ZM156.248 308.422H157.41V314.904H156.248V308.422ZM149.22 315.534H157.41V318.6H150.382V320.504H149.262V317.732H156.262V316.458H149.22V315.534ZM149.262 319.986H157.844V320.924H149.262V319.986ZM168.155 309.29H169.177V310.27C169.177 310.821 169.079 311.343 168.883 311.838C168.696 312.333 168.435 312.795 168.099 313.224C167.772 313.644 167.389 314.022 166.951 314.358C166.521 314.694 166.059 314.979 165.565 315.212C165.079 315.445 164.585 315.623 164.081 315.744L163.563 314.778C164.001 314.685 164.44 314.54 164.879 314.344C165.327 314.148 165.747 313.91 166.139 313.63C166.531 313.341 166.876 313.019 167.175 312.664C167.483 312.309 167.721 311.931 167.889 311.53C168.066 311.119 168.155 310.699 168.155 310.27V309.29ZM168.379 309.29H169.373V310.27C169.373 310.699 169.461 311.119 169.639 311.53C169.816 311.931 170.054 312.309 170.353 312.664C170.661 313.019 171.011 313.341 171.403 313.63C171.795 313.91 172.21 314.153 172.649 314.358C173.097 314.554 173.545 314.694 173.993 314.778L173.461 315.744C172.957 315.623 172.462 315.445 171.977 315.212C171.491 314.979 171.029 314.694 170.591 314.358C170.161 314.022 169.779 313.644 169.443 313.224C169.107 312.795 168.845 312.333 168.659 311.838C168.472 311.343 168.379 310.821 168.379 310.27V309.29ZM163.087 318.418H174.567V319.384H163.087V318.418ZM185.22 308.422H186.368V321.106H185.22V308.422ZM182.658 312.426H185.934V313.392H182.658V312.426ZM182.658 315.072H185.934V316.024H182.658V315.072ZM179.186 311.432H180.11V312.524C180.11 313.187 180.026 313.835 179.858 314.47C179.69 315.095 179.447 315.679 179.13 316.22C178.812 316.761 178.444 317.242 178.024 317.662C177.604 318.073 177.142 318.399 176.638 318.642L175.994 317.746C176.451 317.522 176.876 317.228 177.268 316.864C177.66 316.5 178 316.085 178.29 315.618C178.579 315.151 178.798 314.657 178.948 314.134C179.106 313.602 179.186 313.065 179.186 312.524V311.432ZM179.41 311.432H180.334V312.524C180.334 313.047 180.413 313.56 180.572 314.064C180.74 314.568 180.968 315.044 181.258 315.492C181.547 315.931 181.888 316.327 182.28 316.682C182.681 317.037 183.115 317.321 183.582 317.536L182.924 318.432C182.42 318.199 181.953 317.881 181.524 317.48C181.094 317.079 180.721 316.617 180.404 316.094C180.086 315.571 179.839 315.007 179.662 314.4C179.494 313.793 179.41 313.168 179.41 312.524V311.432ZM176.33 310.62H183.148V311.558H176.33V310.62ZM179.186 308.66H180.348V311.138H179.186V308.66ZM195.362 310.242H196.314V312.286C196.314 312.958 196.221 313.621 196.034 314.274C195.848 314.918 195.586 315.529 195.25 316.108C194.924 316.677 194.541 317.181 194.102 317.62C193.664 318.059 193.192 318.404 192.688 318.656L192.016 317.732C192.474 317.508 192.903 317.205 193.304 316.822C193.715 316.439 194.074 316.001 194.382 315.506C194.69 315.011 194.928 314.489 195.096 313.938C195.274 313.387 195.362 312.837 195.362 312.286V310.242ZM195.6 310.242H196.538V312.286C196.538 312.818 196.622 313.35 196.79 313.882C196.968 314.405 197.21 314.899 197.518 315.366C197.836 315.823 198.195 316.229 198.596 316.584C199.007 316.939 199.446 317.219 199.912 317.424L199.268 318.348C198.755 318.105 198.274 317.779 197.826 317.368C197.378 316.957 196.986 316.486 196.65 315.954C196.324 315.413 196.067 314.834 195.88 314.218C195.694 313.593 195.6 312.949 195.6 312.286V310.242ZM192.422 309.724H199.492V310.69H192.422V309.724ZM201.214 308.422H202.376V321.092H201.214V308.422ZM214.317 313.476H216.641V314.442H214.317V313.476ZM213.463 308.422H214.625V321.078H213.463V308.422ZM205.399 309.668H206.547V317.508H205.399V309.668ZM205.399 316.906H206.407C207.331 316.906 208.279 316.864 209.249 316.78C210.229 316.696 211.242 316.547 212.287 316.332L212.427 317.312C211.345 317.527 210.309 317.676 209.319 317.76C208.339 317.835 207.369 317.872 206.407 317.872H205.399V316.906ZM226.342 308.422H227.504V321.078H226.342V308.422ZM227.196 313.56H229.52V314.526H227.196V313.56ZM223.108 309.78H224.242C224.242 310.984 224.046 312.137 223.654 313.238C223.262 314.33 222.646 315.343 221.806 316.276C220.966 317.2 219.86 318.003 218.488 318.684L217.844 317.788C219.02 317.2 219.996 316.514 220.77 315.73C221.554 314.937 222.138 314.059 222.52 313.098C222.912 312.127 223.108 311.082 223.108 309.962V309.78ZM218.432 309.78H223.696V310.746H218.432V309.78ZM232.193 312.23H240.803V313.168H232.193V312.23ZM230.639 314.862H242.119V315.814H230.639V314.862ZM232.193 308.884H233.341V312.706H232.193V308.884ZM232.109 319.832H240.873V320.784H232.109V319.832ZM232.109 317.088H233.271V320.084H232.109V317.088ZM255.286 308.422H256.434V321.092H255.286V308.422ZM256.168 313.63H258.506V314.61H256.168V313.63ZM246.634 310.452H254.096V311.404H246.634V310.452ZM250.428 312.44C251.025 312.44 251.553 312.566 252.01 312.818C252.477 313.07 252.841 313.415 253.102 313.854C253.373 314.283 253.508 314.783 253.508 315.352C253.508 315.921 253.373 316.425 253.102 316.864C252.841 317.303 252.477 317.648 252.01 317.9C251.553 318.143 251.025 318.264 250.428 318.264C249.831 318.264 249.299 318.143 248.832 317.9C248.375 317.648 248.011 317.303 247.74 316.864C247.469 316.425 247.334 315.921 247.334 315.352C247.334 314.783 247.469 314.283 247.74 313.854C248.011 313.415 248.375 313.07 248.832 312.818C249.299 312.566 249.831 312.44 250.428 312.44ZM250.428 313.406C250.045 313.406 249.705 313.49 249.406 313.658C249.107 313.826 248.869 314.055 248.692 314.344C248.524 314.633 248.44 314.969 248.44 315.352C248.44 315.735 248.524 316.075 248.692 316.374C248.869 316.663 249.107 316.892 249.406 317.06C249.705 317.219 250.045 317.298 250.428 317.298C250.801 317.298 251.137 317.219 251.436 317.06C251.735 316.892 251.968 316.663 252.136 316.374C252.313 316.075 252.402 315.735 252.402 315.352C252.402 314.969 252.313 314.633 252.136 314.344C251.968 314.055 251.735 313.826 251.436 313.658C251.137 313.49 250.801 313.406 250.428 313.406ZM249.826 308.576H250.988V310.872H249.826V308.576ZM260.941 308.926H269.663V312.244H262.145V314.414H260.983V311.348H268.487V309.864H260.941V308.926ZM260.983 313.854H269.943V314.806H260.983V313.854ZM259.569 316.108H271.049V317.06H259.569V316.108ZM264.707 316.472H265.869V321.106H264.707V316.472ZM274.338 319.538C274.338 319.958 274.198 320.448 273.918 321.008C273.647 321.568 273.269 322.133 272.784 322.702L272.476 322.45C272.858 321.983 273.134 321.554 273.302 321.162C273.47 320.779 273.563 320.439 273.582 320.14H273.568C273.344 320.14 273.162 320.07 273.022 319.93C272.882 319.79 272.812 319.608 272.812 319.384C272.812 319.16 272.882 318.978 273.022 318.838C273.162 318.698 273.344 318.628 273.568 318.628C273.792 318.628 273.974 318.707 274.114 318.866C274.263 319.015 274.338 319.239 274.338 319.538ZM66.2507 326.766H74.3987V327.718H66.2507V326.766ZM65.0047 335.278H76.4427V336.244H65.0047V335.278ZM73.7687 326.766H74.9167V328.04C74.9167 328.572 74.9074 329.141 74.8887 329.748C74.8794 330.345 74.842 331.008 74.7767 331.736C74.7114 332.464 74.5994 333.285 74.4407 334.2L73.2647 334.074C73.4327 333.215 73.5494 332.427 73.6147 331.708C73.6894 330.989 73.7314 330.327 73.7407 329.72C73.7594 329.113 73.7687 328.553 73.7687 328.04V326.766ZM81.0555 331.778H92.5215V332.73H81.0555V331.778ZM86.1935 329.846H87.3415V332.212H86.1935V329.846ZM86.1795 325.618H87.1735V326.192C87.1735 326.64 87.0848 327.065 86.9075 327.466C86.7301 327.867 86.4781 328.236 86.1515 328.572C85.8341 328.908 85.4655 329.207 85.0455 329.468C84.6255 329.72 84.1728 329.939 83.6875 330.126C83.2021 330.303 82.6981 330.434 82.1755 330.518L81.7415 329.594C82.1895 329.529 82.6281 329.426 83.0575 329.286C83.4961 329.137 83.9021 328.959 84.2755 328.754C84.6488 328.539 84.9755 328.297 85.2555 328.026C85.5448 327.755 85.7688 327.466 85.9275 327.158C86.0955 326.85 86.1795 326.528 86.1795 326.192V325.618ZM86.3615 325.618H87.3555V326.192C87.3555 326.528 87.4348 326.85 87.5935 327.158C87.7521 327.466 87.9761 327.755 88.2655 328.026C88.5548 328.287 88.8861 328.525 89.2595 328.74C89.6328 328.955 90.0341 329.137 90.4635 329.286C90.9021 329.426 91.3455 329.529 91.7935 329.594L91.3455 330.518C90.8321 330.434 90.3328 330.303 89.8475 330.126C89.3715 329.939 88.9188 329.715 88.4895 329.454C88.0695 329.193 87.6961 328.899 87.3695 328.572C87.0521 328.236 86.8048 327.872 86.6275 327.48C86.4501 327.079 86.3615 326.649 86.3615 326.192V325.618ZM82.3295 333.962H91.0795V338.092H89.9175V334.886H82.3295V333.962ZM99.0724 330.35H101.452V331.302H99.0724V330.35ZM103.58 325.422H104.7V338.092H103.58V325.422ZM101.06 325.688H102.166V337.448H101.06V325.688ZM96.7764 326.486C97.327 326.486 97.803 326.663 98.2044 327.018C98.615 327.373 98.9324 327.881 99.1564 328.544C99.3804 329.207 99.4924 329.986 99.4924 330.882C99.4924 331.787 99.3804 332.571 99.1564 333.234C98.9324 333.897 98.615 334.41 98.2044 334.774C97.803 335.129 97.327 335.306 96.7764 335.306C96.2444 335.306 95.773 335.129 95.3624 334.774C94.961 334.41 94.6484 333.897 94.4244 333.234C94.2004 332.571 94.0884 331.787 94.0884 330.882C94.0884 329.986 94.2004 329.207 94.4244 328.544C94.6484 327.881 94.961 327.373 95.3624 327.018C95.773 326.663 96.2444 326.486 96.7764 326.486ZM96.7764 327.564C96.4497 327.564 96.165 327.699 95.9224 327.97C95.6797 328.241 95.493 328.623 95.3624 329.118C95.2317 329.613 95.1664 330.201 95.1664 330.882C95.1664 331.563 95.2317 332.156 95.3624 332.66C95.493 333.155 95.6797 333.537 95.9224 333.808C96.165 334.079 96.4497 334.214 96.7764 334.214C97.1124 334.214 97.4017 334.079 97.6444 333.808C97.8964 333.537 98.0877 333.155 98.2184 332.66C98.349 332.156 98.4144 331.563 98.4144 330.882C98.4144 330.201 98.349 329.613 98.2184 329.118C98.0877 328.623 97.8964 328.241 97.6444 327.97C97.4017 327.699 97.1124 327.564 96.7764 327.564ZM108.269 331.344H116.963V332.282H108.269V331.344ZM106.813 335.53H118.293V336.496H106.813V335.53ZM111.951 331.75H113.099V335.908H111.951V331.75ZM108.269 326.43H116.837V327.396H109.431V331.764H108.269V326.43ZM131.432 325.422H132.594V338.078H131.432V325.422ZM132.286 330.56H134.61V331.526H132.286V330.56ZM128.198 326.78H129.332C129.332 327.984 129.136 329.137 128.744 330.238C128.352 331.33 127.736 332.343 126.896 333.276C126.056 334.2 124.95 335.003 123.578 335.684L122.934 334.788C124.11 334.2 125.085 333.514 125.86 332.73C126.644 331.937 127.227 331.059 127.61 330.098C128.002 329.127 128.198 328.082 128.198 326.962V326.78ZM123.522 326.78H128.786V327.746H123.522V326.78ZM140.713 326.43H141.735V326.822C141.735 327.223 141.646 327.606 141.469 327.97C141.301 328.325 141.063 328.651 140.755 328.95C140.447 329.239 140.083 329.496 139.663 329.72C139.252 329.935 138.804 330.117 138.319 330.266C137.834 330.415 137.33 330.523 136.807 330.588L136.373 329.664C136.83 329.617 137.269 329.533 137.689 329.412C138.118 329.291 138.515 329.146 138.879 328.978C139.252 328.801 139.574 328.6 139.845 328.376C140.116 328.152 140.326 327.909 140.475 327.648C140.634 327.387 140.713 327.111 140.713 326.822V326.43ZM141.189 326.43H142.211V326.822C142.211 327.102 142.286 327.377 142.435 327.648C142.594 327.909 142.808 328.152 143.079 328.376C143.359 328.591 143.681 328.787 144.045 328.964C144.409 329.141 144.801 329.291 145.221 329.412C145.65 329.533 146.094 329.617 146.551 329.664L146.117 330.588C145.594 330.523 145.09 330.415 144.605 330.266C144.12 330.117 143.667 329.93 143.247 329.706C142.836 329.482 142.477 329.225 142.169 328.936C141.861 328.637 141.618 328.311 141.441 327.956C141.273 327.601 141.189 327.223 141.189 326.822V326.43ZM136.793 325.94H146.145V326.878H136.793V325.94ZM135.743 331.778H147.209V332.73H135.743V331.778ZM140.881 329.874H142.029V332.24H140.881V329.874ZM137.017 333.976H145.767V338.092H144.605V334.914H137.017V333.976ZM152.724 326.346C153.387 326.346 153.97 326.472 154.474 326.724C154.987 326.967 155.389 327.312 155.678 327.76C155.967 328.208 156.112 328.731 156.112 329.328C156.112 329.916 155.967 330.439 155.678 330.896C155.389 331.344 154.987 331.694 154.474 331.946C153.97 332.189 153.387 332.31 152.724 332.31C152.071 332.31 151.487 332.189 150.974 331.946C150.461 331.694 150.055 331.344 149.756 330.896C149.467 330.439 149.322 329.916 149.322 329.328C149.322 328.731 149.467 328.208 149.756 327.76C150.055 327.312 150.461 326.967 150.974 326.724C151.487 326.472 152.071 326.346 152.724 326.346ZM152.724 327.354C152.295 327.354 151.907 327.438 151.562 327.606C151.226 327.765 150.96 327.993 150.764 328.292C150.568 328.591 150.47 328.936 150.47 329.328C150.47 329.72 150.568 330.065 150.764 330.364C150.96 330.663 151.226 330.896 151.562 331.064C151.907 331.223 152.295 331.302 152.724 331.302C153.163 331.302 153.55 331.223 153.886 331.064C154.222 330.896 154.488 330.663 154.684 330.364C154.88 330.065 154.978 329.72 154.978 329.328C154.978 328.936 154.88 328.591 154.684 328.292C154.488 327.993 154.222 327.765 153.886 327.606C153.55 327.438 153.163 327.354 152.724 327.354ZM157.778 325.422H158.94V338.106H157.778V325.422ZM148.846 335.334L148.692 334.354C149.467 334.354 150.316 334.349 151.24 334.34C152.164 334.321 153.116 334.284 154.096 334.228C155.085 334.163 156.037 334.06 156.952 333.92L157.05 334.774C156.098 334.951 155.132 335.082 154.152 335.166C153.181 335.241 152.243 335.287 151.338 335.306C150.433 335.325 149.602 335.334 148.846 335.334ZM165.177 326.696H170.987V334.872H165.177V326.696ZM169.839 327.62H166.311V333.934H169.839V327.62ZM173.241 325.422H174.403V338.092H173.241V325.422ZM174.137 330.476H176.475V331.456H174.137V330.476ZM183.264 325.702C184.178 325.702 184.967 325.8 185.63 325.996C186.302 326.183 186.815 326.453 187.17 326.808C187.534 327.163 187.716 327.597 187.716 328.11C187.716 328.605 187.534 329.034 187.17 329.398C186.815 329.753 186.302 330.023 185.63 330.21C184.967 330.397 184.178 330.49 183.264 330.49C182.358 330.49 181.57 330.397 180.898 330.21C180.235 330.023 179.722 329.753 179.358 329.398C178.994 329.034 178.812 328.605 178.812 328.11C178.812 327.597 178.994 327.163 179.358 326.808C179.722 326.453 180.235 326.183 180.898 325.996C181.57 325.8 182.358 325.702 183.264 325.702ZM183.264 326.626C182.601 326.626 182.022 326.687 181.528 326.808C181.042 326.92 180.664 327.088 180.394 327.312C180.132 327.527 180.002 327.793 180.002 328.11C180.002 328.409 180.132 328.67 180.394 328.894C180.664 329.109 181.042 329.277 181.528 329.398C182.022 329.51 182.601 329.566 183.264 329.566C183.936 329.566 184.514 329.51 185 329.398C185.494 329.277 185.872 329.109 186.134 328.894C186.395 328.67 186.526 328.409 186.526 328.11C186.526 327.793 186.395 327.527 186.134 327.312C185.872 327.088 185.494 326.92 185 326.808C184.514 326.687 183.936 326.626 183.264 326.626ZM178.952 333.752H187.59V337.924H178.952V333.752ZM186.456 334.69H180.086V336.972H186.456V334.69ZM177.552 331.568H188.99V332.52H177.552V331.568ZM199.628 325.422H200.79V338.106H199.628V325.422ZM194.112 326.402C194.738 326.402 195.288 326.584 195.764 326.948C196.25 327.303 196.628 327.811 196.898 328.474C197.178 329.137 197.318 329.916 197.318 330.812C197.318 331.708 197.178 332.487 196.898 333.15C196.628 333.813 196.25 334.326 195.764 334.69C195.288 335.054 194.738 335.236 194.112 335.236C193.487 335.236 192.932 335.054 192.446 334.69C191.961 334.326 191.578 333.813 191.298 333.15C191.028 332.487 190.892 331.708 190.892 330.812C190.892 329.916 191.028 329.137 191.298 328.474C191.578 327.811 191.961 327.303 192.446 326.948C192.932 326.584 193.487 326.402 194.112 326.402ZM194.112 327.438C193.692 327.438 193.324 327.578 193.006 327.858C192.698 328.129 192.456 328.521 192.278 329.034C192.101 329.538 192.012 330.131 192.012 330.812C192.012 331.493 192.101 332.091 192.278 332.604C192.456 333.108 192.698 333.5 193.006 333.78C193.324 334.06 193.692 334.2 194.112 334.2C194.523 334.2 194.882 334.06 195.19 333.78C195.508 333.5 195.755 333.108 195.932 332.604C196.11 332.091 196.198 331.493 196.198 330.812C196.198 330.131 196.11 329.538 195.932 329.034C195.755 328.521 195.508 328.129 195.19 327.858C194.882 327.578 194.523 327.438 194.112 327.438ZM206.985 326.668H212.739V334.886H206.985V326.668ZM211.605 327.606H208.133V333.962H211.605V327.606ZM215.749 325.422H216.897V338.106H215.749V325.422ZM212.529 330.042H216.197V330.994H212.529V330.042ZM219.346 332.772H230.826V333.724H219.346V332.772ZM224.484 333.36H225.632V338.078H224.484V333.36ZM220.816 326.122H229.356V331.064H220.816V326.122ZM228.208 327.06H221.95V330.14H228.208V327.06ZM233.779 329.23H242.389V330.168H233.779V329.23ZM232.225 331.862H243.705V332.814H232.225V331.862ZM233.779 325.884H234.927V329.706H233.779V325.884ZM233.695 336.832H242.459V337.784H233.695V336.832ZM233.695 334.088H234.857V337.084H233.695V334.088ZM253.414 325.744H254.422V326.36C254.422 326.817 254.329 327.251 254.142 327.662C253.965 328.073 253.717 328.451 253.4 328.796C253.083 329.141 252.714 329.449 252.294 329.72C251.874 329.981 251.417 330.205 250.922 330.392C250.437 330.579 249.937 330.714 249.424 330.798L248.976 329.888C249.424 329.813 249.863 329.701 250.292 329.552C250.731 329.393 251.137 329.207 251.51 328.992C251.883 328.768 252.21 328.521 252.49 328.25C252.779 327.97 253.003 327.671 253.162 327.354C253.33 327.027 253.414 326.696 253.414 326.36V325.744ZM253.61 325.744H254.604V326.36C254.604 326.696 254.683 327.023 254.842 327.34C255.01 327.648 255.239 327.942 255.528 328.222C255.817 328.493 256.149 328.74 256.522 328.964C256.895 329.179 257.297 329.365 257.726 329.524C258.165 329.683 258.603 329.795 259.042 329.86L258.594 330.784C258.081 330.691 257.581 330.555 257.096 330.378C256.611 330.191 256.158 329.963 255.738 329.692C255.318 329.421 254.945 329.113 254.618 328.768C254.301 328.423 254.053 328.049 253.876 327.648C253.699 327.247 253.61 326.817 253.61 326.36V325.744ZM248.276 331.862H259.756V332.814H248.276V331.862ZM253.512 332.464H254.674V335.376H253.512V332.464ZM249.732 336.86H258.482V337.812H249.732V336.86ZM249.732 334.158H250.894V337.154H249.732V334.158ZM269.821 325.422H270.997V334.676H269.821V325.422ZM270.633 329.258H272.859V330.238H270.633V329.258ZM266.363 326.402H267.595C267.595 327.494 267.352 328.483 266.867 329.37C266.391 330.257 265.709 331.027 264.823 331.68C263.936 332.333 262.886 332.851 261.673 333.234L261.183 332.296C262.247 331.96 263.166 331.526 263.941 330.994C264.715 330.462 265.313 329.851 265.733 329.16C266.153 328.469 266.363 327.723 266.363 326.92V326.402ZM261.701 326.402H266.965V327.368H261.701V326.402ZM263.101 336.86H271.543V337.812H263.101V336.86ZM263.101 333.738H264.263V337.238H263.101V333.738ZM283.246 325.422H284.408V338.106H283.246V325.422ZM277.73 326.402C278.355 326.402 278.906 326.584 279.382 326.948C279.867 327.303 280.245 327.811 280.516 328.474C280.796 329.137 280.936 329.916 280.936 330.812C280.936 331.708 280.796 332.487 280.516 333.15C280.245 333.813 279.867 334.326 279.382 334.69C278.906 335.054 278.355 335.236 277.73 335.236C277.104 335.236 276.549 335.054 276.064 334.69C275.578 334.326 275.196 333.813 274.916 333.15C274.645 332.487 274.51 331.708 274.51 330.812C274.51 329.916 274.645 329.137 274.916 328.474C275.196 327.811 275.578 327.303 276.064 326.948C276.549 326.584 277.104 326.402 277.73 326.402ZM277.73 327.438C277.31 327.438 276.941 327.578 276.624 327.858C276.316 328.129 276.073 328.521 275.896 329.034C275.718 329.538 275.63 330.131 275.63 330.812C275.63 331.493 275.718 332.091 275.896 332.604C276.073 333.108 276.316 333.5 276.624 333.78C276.941 334.06 277.31 334.2 277.73 334.2C278.14 334.2 278.5 334.06 278.808 333.78C279.125 333.5 279.372 333.108 279.55 332.604C279.727 332.091 279.816 331.493 279.816 330.812C279.816 330.131 279.727 329.538 279.55 329.034C279.372 328.521 279.125 328.129 278.808 327.858C278.5 327.578 278.14 327.438 277.73 327.438ZM293.248 333.22H294.158V333.892C294.158 334.443 294.046 334.984 293.822 335.516C293.598 336.048 293.272 336.524 292.842 336.944C292.422 337.364 291.904 337.686 291.288 337.91L290.714 337.056C291.246 336.86 291.699 336.589 292.072 336.244C292.455 335.899 292.744 335.525 292.94 335.124C293.146 334.713 293.248 334.303 293.248 333.892V333.22ZM293.514 333.22H294.368V333.892C294.368 334.321 294.452 334.746 294.62 335.166C294.788 335.586 295.04 335.969 295.376 336.314C295.722 336.659 296.142 336.935 296.636 337.14L296.16 338.022C295.544 337.779 295.04 337.443 294.648 337.014C294.266 336.585 293.981 336.099 293.794 335.558C293.608 335.007 293.514 334.452 293.514 333.892V333.22ZM297.938 333.22H298.792V333.892C298.792 334.387 298.694 334.905 298.498 335.446C298.312 335.987 298.022 336.491 297.63 336.958C297.248 337.415 296.758 337.77 296.16 338.022L295.656 337.14C296.16 336.907 296.58 336.608 296.916 336.244C297.252 335.871 297.504 335.479 297.672 335.068C297.85 334.648 297.938 334.256 297.938 333.892V333.22ZM298.162 333.22H299.072V333.892C299.072 334.331 299.17 334.755 299.366 335.166C299.572 335.577 299.861 335.95 300.234 336.286C300.617 336.613 301.074 336.869 301.606 337.056L301.032 337.91C300.416 337.686 299.894 337.373 299.464 336.972C299.035 336.561 298.708 336.095 298.484 335.572C298.27 335.04 298.162 334.48 298.162 333.892V333.22ZM299.31 325.436H300.472V332.66H299.31V325.436ZM293.682 326.164C294.326 326.164 294.896 326.29 295.39 326.542C295.885 326.794 296.272 327.144 296.552 327.592C296.842 328.031 296.986 328.544 296.986 329.132C296.986 329.711 296.842 330.219 296.552 330.658C296.272 331.097 295.885 331.442 295.39 331.694C294.896 331.946 294.326 332.072 293.682 332.072C293.048 332.072 292.478 331.946 291.974 331.694C291.48 331.442 291.088 331.097 290.798 330.658C290.518 330.219 290.378 329.711 290.378 329.132C290.378 328.544 290.518 328.031 290.798 327.592C291.088 327.144 291.48 326.794 291.974 326.542C292.478 326.29 293.048 326.164 293.682 326.164ZM293.682 327.144C293.272 327.144 292.903 327.228 292.576 327.396C292.25 327.564 291.988 327.797 291.792 328.096C291.606 328.385 291.512 328.731 291.512 329.132C291.512 329.524 291.606 329.869 291.792 330.168C291.988 330.457 292.25 330.686 292.576 330.854C292.903 331.022 293.272 331.106 293.682 331.106C294.102 331.106 294.476 331.022 294.802 330.854C295.129 330.686 295.386 330.457 295.572 330.168C295.759 329.869 295.852 329.524 295.852 329.132C295.852 328.731 295.759 328.385 295.572 328.096C295.386 327.797 295.129 327.564 294.802 327.396C294.476 327.228 294.102 327.144 293.682 327.144ZM304.419 333.024H305.567V334.48H311.769V333.024H312.917V337.924H304.419V333.024ZM305.567 335.39V336.986H311.769V335.39H305.567ZM302.977 331.19H314.415V332.142H302.977V331.19ZM308.101 325.562H309.109V326.136C309.109 326.575 309.016 326.99 308.829 327.382C308.643 327.765 308.386 328.119 308.059 328.446C307.742 328.763 307.369 329.048 306.939 329.3C306.519 329.552 306.062 329.762 305.567 329.93C305.082 330.098 304.578 330.224 304.055 330.308L303.621 329.384C304.079 329.319 304.522 329.216 304.951 329.076C305.39 328.936 305.801 328.768 306.183 328.572C306.566 328.367 306.902 328.138 307.191 327.886C307.481 327.625 307.705 327.349 307.863 327.06C308.022 326.761 308.101 326.453 308.101 326.136V325.562ZM308.297 325.562H309.291V326.136C309.291 326.444 309.371 326.747 309.529 327.046C309.697 327.335 309.926 327.611 310.215 327.872C310.505 328.124 310.836 328.353 311.209 328.558C311.592 328.763 311.998 328.941 312.427 329.09C312.866 329.23 313.309 329.328 313.757 329.384L313.337 330.308C312.815 330.224 312.306 330.098 311.811 329.93C311.326 329.762 310.869 329.552 310.439 329.3C310.019 329.039 309.646 328.745 309.319 328.418C309.002 328.091 308.75 327.737 308.563 327.354C308.386 326.971 308.297 326.565 308.297 326.136V325.562ZM325.068 325.422H326.216V338.092H325.068V325.422ZM316.654 326.668H317.802V334.508H316.654V326.668ZM316.654 333.822H317.69C318.661 333.822 319.646 333.78 320.644 333.696C321.652 333.603 322.688 333.449 323.752 333.234L323.906 334.214C322.805 334.447 321.746 334.611 320.728 334.704C319.711 334.788 318.698 334.83 317.69 334.83H316.654V333.822ZM337.303 325.422H338.465V338.106H337.303V325.422ZM338.199 330.42H340.537V331.386H338.199V330.42ZM329.281 333.962H330.275C331.05 333.962 331.759 333.953 332.403 333.934C333.056 333.906 333.682 333.859 334.279 333.794C334.886 333.729 335.502 333.64 336.127 333.528L336.267 334.522C335.614 334.634 334.979 334.723 334.363 334.788C333.756 334.853 333.122 334.895 332.459 334.914C331.796 334.933 331.068 334.942 330.275 334.942H329.281V333.962ZM329.281 326.654H335.147V327.606H330.429V334.41H329.281V326.654ZM342.706 337.14C342.473 337.14 342.281 337.065 342.132 336.916C341.992 336.767 341.922 336.575 341.922 336.342C341.922 336.109 341.992 335.922 342.132 335.782C342.281 335.633 342.473 335.558 342.706 335.558C342.949 335.558 343.145 335.633 343.294 335.782C343.443 335.922 343.518 336.109 343.518 336.342C343.518 336.575 343.443 336.767 343.294 336.916C343.145 337.065 342.949 337.14 342.706 337.14ZM123.244 366.576H124.392V369.726H123.244V366.576ZM123.818 360.248C124.714 360.248 125.508 360.388 126.198 360.668C126.889 360.939 127.43 361.321 127.822 361.816C128.224 362.311 128.424 362.894 128.424 363.566C128.424 364.238 128.224 364.826 127.822 365.33C127.43 365.825 126.889 366.207 126.198 366.478C125.508 366.749 124.714 366.884 123.818 366.884C122.932 366.884 122.138 366.749 121.438 366.478C120.748 366.207 120.206 365.825 119.814 365.33C119.422 364.826 119.226 364.238 119.226 363.566C119.226 362.894 119.422 362.311 119.814 361.816C120.206 361.321 120.748 360.939 121.438 360.668C122.138 360.388 122.932 360.248 123.818 360.248ZM123.818 361.186C123.146 361.186 122.549 361.284 122.026 361.48C121.504 361.676 121.093 361.956 120.794 362.32C120.496 362.675 120.346 363.09 120.346 363.566C120.346 364.042 120.496 364.462 120.794 364.826C121.093 365.19 121.504 365.47 122.026 365.666C122.549 365.862 123.146 365.96 123.818 365.96C124.49 365.96 125.088 365.862 125.61 365.666C126.133 365.47 126.544 365.19 126.842 364.826C127.15 364.462 127.304 364.042 127.304 363.566C127.304 363.09 127.15 362.675 126.842 362.32C126.544 361.956 126.133 361.676 125.61 361.48C125.088 361.284 124.49 361.186 123.818 361.186ZM118.106 369.502H129.586V370.468H118.106V369.502ZM132.525 362.432H141.107V363.384H132.525V362.432ZM130.971 364.616H142.451V365.568H130.971V364.616ZM132.525 359.618H133.659V362.88H132.525V359.618ZM132.399 366.688H140.995V369.67H133.589V371.294H132.427V368.802H139.847V367.598H132.399V366.688ZM132.427 371H141.429V371.924H132.427V371ZM145.32 365.344H154.014V366.282H145.32V365.344ZM143.864 369.53H155.344V370.496H143.864V369.53ZM149.002 365.75H150.15V369.908H149.002V365.75ZM145.32 360.43H153.888V361.396H146.482V365.764H145.32V360.43ZM168.581 359.422H169.743V367.052H168.581V359.422ZM169.421 362.782H171.605V363.762H169.421V362.782ZM161.791 367.766H169.743V371.924H161.791V367.766ZM168.595 368.704H162.925V370.972H168.595V368.704ZM159.943 360.766H167.419V361.704H159.943V360.766ZM163.681 362.334C164.288 362.334 164.815 362.427 165.263 362.614C165.72 362.801 166.075 363.067 166.327 363.412C166.579 363.748 166.705 364.14 166.705 364.588C166.705 365.045 166.579 365.442 166.327 365.778C166.075 366.114 165.72 366.375 165.263 366.562C164.815 366.749 164.288 366.842 163.681 366.842C163.074 366.842 162.542 366.749 162.085 366.562C161.637 366.375 161.282 366.114 161.021 365.778C160.769 365.442 160.643 365.045 160.643 364.588C160.643 364.14 160.769 363.748 161.021 363.412C161.282 363.067 161.637 362.801 162.085 362.614C162.542 362.427 163.074 362.334 163.681 362.334ZM163.681 363.23C163.102 363.23 162.636 363.351 162.281 363.594C161.936 363.837 161.763 364.168 161.763 364.588C161.763 365.008 161.936 365.344 162.281 365.596C162.636 365.839 163.102 365.96 163.681 365.96C164.25 365.96 164.712 365.839 165.067 365.596C165.422 365.344 165.599 365.008 165.599 364.588C165.599 364.168 165.422 363.837 165.067 363.594C164.722 363.351 164.26 363.23 163.681 363.23ZM163.107 359.324H164.269V361.242H163.107V359.324ZM174.908 360.948H175.902C175.902 361.62 175.869 362.311 175.804 363.02C175.748 363.72 175.64 364.42 175.482 365.12C175.332 365.811 175.113 366.492 174.824 367.164C174.544 367.836 174.175 368.48 173.718 369.096L172.808 368.564C173.246 368.004 173.601 367.421 173.872 366.814C174.152 366.207 174.366 365.587 174.516 364.952C174.665 364.308 174.768 363.659 174.824 363.006C174.88 362.343 174.908 361.685 174.908 361.032V360.948ZM173.074 360.948H175.482V361.9H173.074V360.948ZM177.694 360.948H178.688C178.688 361.611 178.664 362.32 178.618 363.076C178.58 363.832 178.492 364.607 178.352 365.4C178.221 366.193 178.011 366.973 177.722 367.738C177.432 368.503 177.036 369.227 176.532 369.908L175.622 369.376C176.004 368.872 176.322 368.345 176.574 367.794C176.835 367.234 177.04 366.665 177.19 366.086C177.339 365.498 177.451 364.919 177.526 364.35C177.6 363.771 177.647 363.202 177.666 362.642C177.684 362.082 177.694 361.545 177.694 361.032V360.948ZM176.308 360.948H178.31V361.9H176.308V360.948ZM182.482 359.422H183.602V372.092H182.482V359.422ZM178.1 364.392H180.382V365.358H178.1V364.392ZM180.144 359.758H181.236V371.448H180.144V359.758ZM198.267 364.476H200.591V365.442H198.267V364.476ZM197.413 359.422H198.575V372.078H197.413V359.422ZM189.349 360.668H190.497V368.508H189.349V360.668ZM189.349 367.906H190.357C191.281 367.906 192.228 367.864 193.199 367.78C194.179 367.696 195.191 367.547 196.237 367.332L196.377 368.312C195.294 368.527 194.258 368.676 193.269 368.76C192.289 368.835 191.318 368.872 190.357 368.872H189.349V367.906ZM203.291 363.258H211.873V364.196H203.291V363.258ZM203.291 359.898H204.439V363.65H203.291V359.898ZM201.723 365.68H213.175V366.618H201.723V365.68ZM206.959 366.296H208.107V369.222H206.959V366.296ZM203.179 370.86H211.957V371.812H203.179V370.86ZM203.179 368.116H204.327V371.308H203.179V368.116ZM227.406 359.422H228.512V372.092H227.406V359.422ZM225.264 364.504H227.7V365.456H225.264V364.504ZM224.536 359.702H225.614V371.434H224.536V359.702ZM218.222 367.99H219.048C219.674 367.99 220.238 367.985 220.742 367.976C221.256 367.957 221.741 367.92 222.198 367.864C222.665 367.808 223.141 367.729 223.626 367.626L223.738 368.592C223.234 368.695 222.744 368.774 222.268 368.83C221.802 368.886 221.307 368.923 220.784 368.942C220.271 368.961 219.692 368.97 219.048 368.97H218.222V367.99ZM218.222 360.962H222.926V361.914H219.384V368.438H218.222V360.962ZM233.929 366.968H235.091V369.026H233.929V366.968ZM239.249 359.422H240.411V372.092H239.249V359.422ZM240.047 364.798H242.385V365.778H240.047V364.798ZM230.681 369.684L230.499 368.704C231.264 368.704 232.095 368.699 232.991 368.69C233.896 368.671 234.82 368.634 235.763 368.578C236.706 368.522 237.616 368.433 238.493 368.312L238.577 369.166C237.672 369.325 236.748 369.441 235.805 369.516C234.872 369.591 233.966 369.637 233.089 369.656C232.221 369.675 231.418 369.684 230.681 369.684ZM230.723 360.962H238.283V361.9H230.723V360.962ZM234.517 362.628C235.105 362.628 235.623 362.726 236.071 362.922C236.519 363.118 236.869 363.393 237.121 363.748C237.373 364.093 237.499 364.504 237.499 364.98C237.499 365.447 237.373 365.857 237.121 366.212C236.869 366.567 236.519 366.842 236.071 367.038C235.623 367.225 235.105 367.318 234.517 367.318C233.929 367.318 233.406 367.225 232.949 367.038C232.501 366.842 232.151 366.567 231.899 366.212C231.656 365.857 231.535 365.447 231.535 364.98C231.535 364.504 231.656 364.093 231.899 363.748C232.151 363.393 232.501 363.118 232.949 362.922C233.406 362.726 233.929 362.628 234.517 362.628ZM234.517 363.538C233.948 363.538 233.49 363.669 233.145 363.93C232.8 364.191 232.627 364.541 232.627 364.98C232.627 365.409 232.8 365.755 233.145 366.016C233.49 366.277 233.948 366.408 234.517 366.408C235.077 366.408 235.53 366.277 235.875 366.016C236.22 365.755 236.393 365.409 236.393 364.98C236.393 364.541 236.22 364.191 235.875 363.93C235.53 363.669 235.077 363.538 234.517 363.538ZM233.929 359.45H235.091V361.578H233.929V359.45ZM255.37 359.436H256.532V368.928H255.37V359.436ZM256.168 363.594H258.394V364.56H256.168V363.594ZM246.732 360.976H254.208V361.914H246.732V360.976ZM250.47 362.6C251.067 362.6 251.595 362.703 252.052 362.908C252.509 363.104 252.864 363.379 253.116 363.734C253.368 364.079 253.494 364.49 253.494 364.966C253.494 365.442 253.368 365.857 253.116 366.212C252.864 366.557 252.509 366.828 252.052 367.024C251.595 367.22 251.067 367.318 250.47 367.318C249.873 367.318 249.345 367.22 248.888 367.024C248.431 366.828 248.071 366.557 247.81 366.212C247.558 365.857 247.432 365.442 247.432 364.966C247.432 364.49 247.558 364.079 247.81 363.734C248.071 363.379 248.431 363.104 248.888 362.908C249.345 362.703 249.873 362.6 250.47 362.6ZM250.47 363.51C249.901 363.51 249.439 363.645 249.084 363.916C248.729 364.177 248.552 364.527 248.552 364.966C248.552 365.405 248.729 365.755 249.084 366.016C249.439 366.277 249.901 366.408 250.47 366.408C251.049 366.408 251.511 366.277 251.856 366.016C252.211 365.755 252.388 365.405 252.388 364.966C252.388 364.527 252.211 364.177 251.856 363.916C251.511 363.645 251.049 363.51 250.47 363.51ZM249.896 359.436H251.058V361.452H249.896V359.436ZM248.65 370.86H257.092V371.812H248.65V370.86ZM248.65 368.172H249.798V371.252H248.65V368.172ZM267.893 365.386H269.041V367.318H267.893V365.386ZM262.755 364.7H274.193V365.638H262.755V364.7ZM264.141 366.898H272.723V369.796H265.303V371.28H264.169V368.956H271.589V367.78H264.141V366.898ZM264.169 371.042H273.101V371.952H264.169V371.042ZM267.809 360.22H268.817V360.598C268.817 360.99 268.728 361.354 268.551 361.69C268.383 362.026 268.135 362.329 267.809 362.6C267.491 362.871 267.118 363.109 266.689 363.314C266.269 363.51 265.807 363.678 265.303 363.818C264.808 363.949 264.29 364.037 263.749 364.084L263.371 363.202C263.837 363.165 264.285 363.095 264.715 362.992C265.153 362.88 265.559 362.745 265.933 362.586C266.306 362.427 266.633 362.245 266.913 362.04C267.193 361.835 267.412 361.611 267.571 361.368C267.729 361.125 267.809 360.869 267.809 360.598V360.22ZM268.131 360.22H269.139V360.598C269.139 360.869 269.218 361.13 269.377 361.382C269.535 361.625 269.755 361.849 270.035 362.054C270.315 362.25 270.641 362.427 271.015 362.586C271.388 362.745 271.789 362.88 272.219 362.992C272.657 363.095 273.115 363.165 273.591 363.202L273.213 364.084C272.671 364.037 272.149 363.949 271.645 363.818C271.15 363.678 270.688 363.51 270.259 363.314C269.839 363.109 269.465 362.871 269.139 362.6C268.821 362.329 268.574 362.026 268.397 361.69C268.219 361.354 268.131 360.99 268.131 360.598V360.22ZM263.805 359.856H273.157V360.78H263.805V359.856ZM284.832 359.422H285.994V372.106H284.832V359.422ZM279.316 360.402C279.941 360.402 280.492 360.584 280.968 360.948C281.453 361.303 281.831 361.811 282.102 362.474C282.382 363.137 282.522 363.916 282.522 364.812C282.522 365.708 282.382 366.487 282.102 367.15C281.831 367.813 281.453 368.326 280.968 368.69C280.492 369.054 279.941 369.236 279.316 369.236C278.69 369.236 278.135 369.054 277.65 368.69C277.164 368.326 276.782 367.813 276.502 367.15C276.231 366.487 276.096 365.708 276.096 364.812C276.096 363.916 276.231 363.137 276.502 362.474C276.782 361.811 277.164 361.303 277.65 360.948C278.135 360.584 278.69 360.402 279.316 360.402ZM279.316 361.438C278.896 361.438 278.527 361.578 278.21 361.858C277.902 362.129 277.659 362.521 277.482 363.034C277.304 363.538 277.216 364.131 277.216 364.812C277.216 365.493 277.304 366.091 277.482 366.604C277.659 367.108 277.902 367.5 278.21 367.78C278.527 368.06 278.896 368.2 279.316 368.2C279.726 368.2 280.086 368.06 280.394 367.78C280.711 367.5 280.958 367.108 281.136 366.604C281.313 366.091 281.402 365.493 281.402 364.812C281.402 364.131 281.313 363.538 281.136 363.034C280.958 362.521 280.711 362.129 280.394 361.858C280.086 361.578 279.726 361.438 279.316 361.438ZM290.389 370.538C290.389 370.958 290.249 371.448 289.969 372.008C289.698 372.568 289.32 373.133 288.835 373.702L288.527 373.45C288.909 372.983 289.185 372.554 289.353 372.162C289.521 371.779 289.614 371.439 289.633 371.14H289.619C289.395 371.14 289.213 371.07 289.073 370.93C288.933 370.79 288.863 370.608 288.863 370.384C288.863 370.16 288.933 369.978 289.073 369.838C289.213 369.698 289.395 369.628 289.619 369.628C289.843 369.628 290.025 369.707 290.165 369.866C290.314 370.015 290.389 370.239 290.389 370.538ZM126.029 376.422H127.149V389.092H126.029V376.422ZM123.915 381.574H126.351V382.54H123.915V381.574ZM123.159 376.702H124.251V388.434H123.159V376.702ZM117.041 377.948H118.203V385.256H117.041V377.948ZM117.041 384.794H117.839C118.501 384.794 119.197 384.771 119.925 384.724C120.653 384.668 121.427 384.556 122.249 384.388L122.389 385.41C121.53 385.578 120.727 385.69 119.981 385.746C119.234 385.793 118.52 385.816 117.839 385.816H117.041V384.794ZM132.86 376.884C133.494 376.884 134.054 377.005 134.54 377.248C135.034 377.481 135.422 377.808 135.702 378.228C135.982 378.648 136.122 379.138 136.122 379.698C136.122 380.249 135.982 380.739 135.702 381.168C135.422 381.588 135.034 381.915 134.54 382.148C134.054 382.381 133.494 382.498 132.86 382.498C132.234 382.498 131.674 382.381 131.18 382.148C130.685 381.915 130.293 381.588 130.004 381.168C129.724 380.739 129.584 380.249 129.584 379.698C129.584 379.138 129.724 378.648 130.004 378.228C130.293 377.808 130.685 377.481 131.18 377.248C131.674 377.005 132.234 376.884 132.86 376.884ZM132.86 377.85C132.449 377.85 132.08 377.929 131.754 378.088C131.436 378.237 131.184 378.452 130.998 378.732C130.811 379.012 130.718 379.334 130.718 379.698C130.718 380.062 130.811 380.384 130.998 380.664C131.184 380.935 131.436 381.149 131.754 381.308C132.08 381.467 132.449 381.546 132.86 381.546C133.27 381.546 133.634 381.467 133.952 381.308C134.278 381.149 134.535 380.935 134.722 380.664C134.908 380.384 135.002 380.062 135.002 379.698C135.002 379.334 134.908 379.012 134.722 378.732C134.535 378.452 134.278 378.237 133.952 378.088C133.634 377.929 133.27 377.85 132.86 377.85ZM138.516 376.422H139.678V382.904H138.516V376.422ZM131.488 383.534H139.678V386.6H132.65V388.504H131.53V385.732H138.53V384.458H131.488V383.534ZM131.53 387.986H140.112V388.924H131.53V387.986ZM146.284 377.346C146.947 377.346 147.53 377.472 148.034 377.724C148.548 377.967 148.949 378.312 149.238 378.76C149.528 379.208 149.672 379.731 149.672 380.328C149.672 380.916 149.528 381.439 149.238 381.896C148.949 382.344 148.548 382.694 148.034 382.946C147.53 383.189 146.947 383.31 146.284 383.31C145.631 383.31 145.048 383.189 144.534 382.946C144.021 382.694 143.615 382.344 143.316 381.896C143.027 381.439 142.882 380.916 142.882 380.328C142.882 379.731 143.027 379.208 143.316 378.76C143.615 378.312 144.021 377.967 144.534 377.724C145.048 377.472 145.631 377.346 146.284 377.346ZM146.284 378.354C145.855 378.354 145.468 378.438 145.122 378.606C144.786 378.765 144.52 378.993 144.324 379.292C144.128 379.591 144.03 379.936 144.03 380.328C144.03 380.72 144.128 381.065 144.324 381.364C144.52 381.663 144.786 381.896 145.122 382.064C145.468 382.223 145.855 382.302 146.284 382.302C146.723 382.302 147.11 382.223 147.446 382.064C147.782 381.896 148.048 381.663 148.244 381.364C148.44 381.065 148.538 380.72 148.538 380.328C148.538 379.936 148.44 379.591 148.244 379.292C148.048 378.993 147.782 378.765 147.446 378.606C147.11 378.438 146.723 378.354 146.284 378.354ZM151.338 376.422H152.5V389.106H151.338V376.422ZM142.406 386.334L142.252 385.354C143.027 385.354 143.876 385.349 144.8 385.34C145.724 385.321 146.676 385.284 147.656 385.228C148.646 385.163 149.598 385.06 150.512 384.92L150.61 385.774C149.658 385.951 148.692 386.082 147.712 386.166C146.742 386.241 145.804 386.287 144.898 386.306C143.993 386.325 143.162 386.334 142.406 386.334ZM163.371 384.472H164.519V389.106H163.371V384.472ZM158.233 384.08H169.671V385.046H158.233V384.08ZM163.371 378.606H164.393V378.928C164.393 379.357 164.305 379.768 164.127 380.16C163.95 380.543 163.703 380.897 163.385 381.224C163.068 381.551 162.695 381.845 162.265 382.106C161.845 382.358 161.388 382.573 160.893 382.75C160.408 382.918 159.899 383.039 159.367 383.114L158.947 382.19C159.405 382.125 159.848 382.022 160.277 381.882C160.716 381.742 161.117 381.569 161.481 381.364C161.855 381.159 162.181 380.93 162.461 380.678C162.751 380.417 162.975 380.141 163.133 379.852C163.292 379.553 163.371 379.245 163.371 378.928V378.606ZM163.511 378.606H164.533V378.928C164.533 379.236 164.613 379.539 164.771 379.838C164.93 380.127 165.149 380.403 165.429 380.664C165.709 380.916 166.031 381.149 166.395 381.364C166.769 381.569 167.17 381.742 167.599 381.882C168.038 382.022 168.486 382.125 168.943 382.19L168.523 383.114C167.991 383.039 167.478 382.918 166.983 382.75C166.498 382.573 166.041 382.358 165.611 382.106C165.191 381.845 164.823 381.551 164.505 381.224C164.197 380.897 163.955 380.543 163.777 380.16C163.6 379.768 163.511 379.357 163.511 378.928V378.606ZM159.339 377.99H168.565V378.928H159.339V377.99ZM163.371 376.422H164.519V378.312H163.371V376.422ZM177.328 379.684H180.786V380.65H177.328V379.684ZM173.072 384.598H181.528V389.106H180.366V385.536H173.072V384.598ZM180.366 376.422H181.528V383.884H180.366V376.422ZM174.57 377.136C175.186 377.136 175.737 377.267 176.222 377.528C176.717 377.78 177.104 378.139 177.384 378.606C177.673 379.063 177.818 379.586 177.818 380.174C177.818 380.771 177.673 381.299 177.384 381.756C177.104 382.213 176.717 382.573 176.222 382.834C175.737 383.095 175.186 383.226 174.57 383.226C173.945 383.226 173.385 383.095 172.89 382.834C172.405 382.573 172.017 382.213 171.728 381.756C171.448 381.299 171.308 380.771 171.308 380.174C171.308 379.586 171.448 379.063 171.728 378.606C172.017 378.139 172.405 377.78 172.89 377.528C173.385 377.267 173.945 377.136 174.57 377.136ZM174.57 378.13C174.159 378.13 173.791 378.219 173.464 378.396C173.147 378.573 172.89 378.816 172.694 379.124C172.507 379.432 172.414 379.782 172.414 380.174C172.414 380.575 172.507 380.935 172.694 381.252C172.89 381.56 173.147 381.803 173.464 381.98C173.791 382.148 174.159 382.232 174.57 382.232C174.971 382.232 175.335 382.148 175.662 381.98C175.989 381.803 176.245 381.56 176.432 381.252C176.619 380.935 176.712 380.575 176.712 380.174C176.712 379.782 176.619 379.432 176.432 379.124C176.245 378.816 175.989 378.573 175.662 378.396C175.335 378.219 174.971 378.13 174.57 378.13ZM193.189 376.422H194.351V389.106H193.189V376.422ZM187.673 377.402C188.298 377.402 188.849 377.584 189.325 377.948C189.81 378.303 190.188 378.811 190.459 379.474C190.739 380.137 190.879 380.916 190.879 381.812C190.879 382.708 190.739 383.487 190.459 384.15C190.188 384.813 189.81 385.326 189.325 385.69C188.849 386.054 188.298 386.236 187.673 386.236C187.048 386.236 186.492 386.054 186.007 385.69C185.522 385.326 185.139 384.813 184.859 384.15C184.588 383.487 184.453 382.708 184.453 381.812C184.453 380.916 184.588 380.137 184.859 379.474C185.139 378.811 185.522 378.303 186.007 377.948C186.492 377.584 187.048 377.402 187.673 377.402ZM187.673 378.438C187.253 378.438 186.884 378.578 186.567 378.858C186.259 379.129 186.016 379.521 185.839 380.034C185.662 380.538 185.573 381.131 185.573 381.812C185.573 382.493 185.662 383.091 185.839 383.604C186.016 384.108 186.259 384.5 186.567 384.78C186.884 385.06 187.253 385.2 187.673 385.2C188.084 385.2 188.443 385.06 188.751 384.78C189.068 384.5 189.316 384.108 189.493 383.604C189.67 383.091 189.759 382.493 189.759 381.812C189.759 381.131 189.67 380.538 189.493 380.034C189.316 379.521 189.068 379.129 188.751 378.858C188.443 378.578 188.084 378.438 187.673 378.438ZM201.05 381.882H207.518V382.834H201.05V381.882ZM203.64 382.638H204.802V385.55H203.64V382.638ZM201.05 377.626H207.462V378.564H202.198V382.218H201.05V377.626ZM209.198 376.422H210.36V389.106H209.198V376.422ZM200.266 386.362L200.112 385.382C200.942 385.382 201.824 385.377 202.758 385.368C203.691 385.349 204.638 385.317 205.6 385.27C206.561 385.214 207.485 385.135 208.372 385.032L208.47 385.886C207.546 386.026 206.603 386.133 205.642 386.208C204.69 386.273 203.756 386.315 202.842 386.334C201.936 386.353 201.078 386.362 200.266 386.362ZM222.147 376.422H223.309V389.092H222.147V376.422ZM218.437 377.794H219.585C219.585 378.709 219.473 379.591 219.249 380.44C219.034 381.289 218.693 382.097 218.227 382.862C217.76 383.618 217.153 384.323 216.407 384.976C215.66 385.629 214.755 386.213 213.691 386.726L213.075 385.788C214.297 385.2 215.305 384.514 216.099 383.73C216.892 382.946 217.48 382.073 217.863 381.112C218.245 380.141 218.437 379.096 218.437 377.976V377.794ZM213.663 377.794H218.927V378.732H213.663V377.794ZM225.786 382.302H237.266V383.198H225.786V382.302ZM227.158 384.206H235.838V386.908H228.334V388.392H227.186V386.11H234.69V385.046H227.158V384.206ZM227.186 388.084H236.244V388.924H227.186V388.084ZM227.242 376.8H235.796V379.432H228.418V380.804H227.27V378.648H234.648V377.626H227.242V376.8ZM227.27 380.524H236.02V381.364H227.27V380.524ZM250.418 376.422H251.58V389.092H250.418V376.422ZM251.314 381.406H253.652V382.4H251.314V381.406ZM242.354 377.5H243.502V380.832H247.1V377.5H248.248V386.054H242.354V377.5ZM243.502 381.756V385.088H247.1V381.756H243.502ZM263.395 376.436H264.557V383.422H263.395V376.436ZM264.193 379.474H266.433V380.454H264.193V379.474ZM256.591 383.982H257.739V385.522H263.395V383.982H264.557V388.924H256.591V383.982ZM257.739 386.446V387.972H263.395V386.446H257.739ZM255.275 382.162H256.269C257.035 382.162 257.739 382.153 258.383 382.134C259.037 382.115 259.667 382.073 260.273 382.008C260.889 381.943 261.524 381.854 262.177 381.742L262.289 382.708C261.617 382.82 260.969 382.909 260.343 382.974C259.727 383.03 259.088 383.072 258.425 383.1C257.772 383.119 257.053 383.128 256.269 383.128H255.275V382.162ZM255.247 377.052H260.945V380.454H256.423V382.75H255.275V379.544H259.811V378.004H255.247V377.052ZM276.82 376.422H277.968V389.092H276.82V376.422ZM268.406 377.668H269.554V385.508H268.406V377.668ZM268.406 384.822H269.442C270.413 384.822 271.398 384.78 272.396 384.696C273.404 384.603 274.44 384.449 275.504 384.234L275.658 385.214C274.557 385.447 273.498 385.611 272.48 385.704C271.463 385.788 270.45 385.83 269.442 385.83H268.406V384.822ZM289.055 376.422H290.217V389.106H289.055V376.422ZM289.951 381.42H292.289V382.386H289.951V381.42ZM281.033 384.962H282.027C282.802 384.962 283.511 384.953 284.155 384.934C284.808 384.906 285.434 384.859 286.031 384.794C286.638 384.729 287.254 384.64 287.879 384.528L288.019 385.522C287.366 385.634 286.731 385.723 286.115 385.788C285.508 385.853 284.874 385.895 284.211 385.914C283.548 385.933 282.82 385.942 282.027 385.942H281.033V384.962ZM281.033 377.654H286.899V378.606H282.181V385.41H281.033V377.654ZM294.458 388.14C294.225 388.14 294.033 388.065 293.884 387.916C293.744 387.767 293.674 387.575 293.674 387.342C293.674 387.109 293.744 386.922 293.884 386.782C294.033 386.633 294.225 386.558 294.458 386.558C294.701 386.558 294.897 386.633 295.046 386.782C295.195 386.922 295.27 387.109 295.27 387.342C295.27 387.575 295.195 387.767 295.046 387.916C294.897 388.065 294.701 388.14 294.458 388.14Z" fill="#B49066"/>
<path d="M135.368 472.96V474H125.928V472.96L128.128 472.72C128.554 472.667 128.808 472.56 128.888 472.4C128.968 472.24 129.008 471.693 129.008 470.76V460.8C129.008 458.827 128.701 457.44 128.088 456.64C127.501 455.813 126.634 455.4 125.488 455.4C124.661 455.4 123.728 455.667 122.688 456.2C121.674 456.733 120.701 457.76 119.768 459.28V470.76C119.768 471.693 119.808 472.24 119.888 472.4C119.968 472.56 120.221 472.667 120.648 472.72L122.848 472.96V474H113.408V472.96L115.608 472.72C116.034 472.667 116.288 472.56 116.368 472.4C116.448 472.24 116.488 471.693 116.488 470.76V457.44C116.488 456.507 116.448 455.96 116.368 455.8C116.288 455.64 116.034 455.533 115.608 455.48L113.408 455.28V454.2H119.568V457.44C120.501 456.187 121.554 455.267 122.728 454.68C123.928 454.093 125.114 453.8 126.288 453.8C129.168 453.8 131.021 455.12 131.848 457.76C132.834 456.373 133.928 455.373 135.128 454.76C136.354 454.12 137.581 453.8 138.808 453.8C140.701 453.8 142.168 454.413 143.208 455.64C144.274 456.84 144.808 458.547 144.808 460.76V470.76C144.808 471.693 144.848 472.24 144.928 472.4C145.008 472.56 145.261 472.667 145.688 472.72L147.888 472.96V474H138.448V472.96L140.648 472.72C141.074 472.667 141.328 472.56 141.408 472.4C141.488 472.24 141.528 471.693 141.528 470.76V460.8C141.528 458.827 141.221 457.44 140.608 456.64C140.021 455.813 139.154 455.4 138.008 455.4C137.181 455.4 136.234 455.68 135.168 456.24C134.128 456.773 133.141 457.827 132.208 459.4C132.234 459.613 132.248 459.84 132.248 460.08C132.274 460.293 132.288 460.52 132.288 460.76V470.76C132.288 471.693 132.328 472.24 132.408 472.4C132.488 472.56 132.741 472.667 133.168 472.72L135.368 472.96ZM168.605 463.68V464.48C168.605 467.493 167.845 469.907 166.325 471.72C164.831 473.507 162.698 474.4 159.925 474.4C157.178 474.4 155.045 473.507 153.525 471.72C152.031 469.907 151.285 467.493 151.285 464.48V463.68C151.285 460.693 152.031 458.307 153.525 456.52C155.018 454.707 157.151 453.8 159.925 453.8C162.698 453.8 164.831 454.707 166.325 456.52C167.845 458.307 168.605 460.693 168.605 463.68ZM165.005 462.88C165.005 460.107 164.565 458.12 163.685 456.92C162.831 455.693 161.578 455.08 159.925 455.08C158.298 455.08 157.045 455.693 156.165 456.92C155.311 458.12 154.885 460.107 154.885 462.88V465.28C154.885 468.08 155.311 470.093 156.165 471.32C157.045 472.52 158.298 473.12 159.925 473.12C161.578 473.12 162.831 472.52 163.685 471.32C164.565 470.093 165.005 468.08 165.005 465.28V462.88ZM194.43 472.96V474H184.99V472.96L187.19 472.72C187.617 472.667 187.87 472.56 187.95 472.4C188.03 472.24 188.07 471.693 188.07 470.76V460.8C188.07 458.827 187.764 457.44 187.15 456.64C186.564 455.813 185.697 455.4 184.55 455.4C183.724 455.4 182.79 455.667 181.75 456.2C180.737 456.733 179.764 457.76 178.83 459.28V470.76C178.83 471.693 178.87 472.24 178.95 472.4C179.03 472.56 179.284 472.667 179.71 472.72L181.91 472.96V474H172.47V472.96L174.67 472.72C175.097 472.667 175.35 472.56 175.43 472.4C175.51 472.24 175.55 471.693 175.55 470.76V457.44C175.55 456.507 175.51 455.96 175.43 455.8C175.35 455.64 175.097 455.533 174.67 455.48L172.47 455.28V454.2H178.63V457.44C179.564 456.187 180.617 455.267 181.79 454.68C182.99 454.093 184.177 453.8 185.35 453.8C188.23 453.8 190.084 455.12 190.91 457.76C191.897 456.373 192.99 455.373 194.19 454.76C195.417 454.12 196.644 453.8 197.87 453.8C199.764 453.8 201.23 454.413 202.27 455.64C203.337 456.84 203.87 458.547 203.87 460.76V470.76C203.87 471.693 203.91 472.24 203.99 472.4C204.07 472.56 204.324 472.667 204.75 472.72L206.95 472.96V474H197.51V472.96L199.71 472.72C200.137 472.667 200.39 472.56 200.47 472.4C200.55 472.24 200.59 471.693 200.59 470.76V460.8C200.59 458.827 200.284 457.44 199.67 456.64C199.084 455.813 198.217 455.4 197.07 455.4C196.244 455.4 195.297 455.68 194.23 456.24C193.19 456.773 192.204 457.827 191.27 459.4C191.297 459.613 191.31 459.84 191.31 460.08C191.337 460.293 191.35 460.52 191.35 460.76V470.76C191.35 471.693 191.39 472.24 191.47 472.4C191.55 472.56 191.804 472.667 192.23 472.72L194.43 472.96ZM226.307 469.44C225.827 471.253 224.921 472.533 223.587 473.28C222.281 474.027 220.827 474.4 219.227 474.4C216.267 474.4 214.054 473.507 212.587 471.72C211.121 469.907 210.387 467.493 210.387 464.48V463.68C210.387 460.693 211.094 458.307 212.507 456.52C213.921 454.707 215.974 453.8 218.667 453.8C220.107 453.8 221.414 454.093 222.587 454.68C223.787 455.267 224.734 456.133 225.427 457.28C226.147 458.427 226.507 459.853 226.507 461.56C226.507 462.36 226.427 463.2 226.267 464.08H213.987V465.28C213.987 468.08 214.414 470.093 215.267 471.32C216.147 472.52 217.561 473.12 219.507 473.12C220.734 473.12 221.747 472.8 222.547 472.16C223.374 471.52 223.921 470.413 224.187 468.84L226.307 469.44ZM218.667 455.08C217.094 455.08 215.921 455.68 215.147 456.88C214.374 458.08 213.987 460.053 213.987 462.8H222.987V462.68C223.041 462.333 223.081 462 223.107 461.68C223.134 461.333 223.147 461.027 223.147 460.76C223.147 458.76 222.734 457.32 221.907 456.44C221.081 455.533 220.001 455.08 218.667 455.08ZM252.643 472.96V474H243.203V472.96L245.403 472.72C245.829 472.667 246.083 472.56 246.163 472.4C246.243 472.24 246.283 471.693 246.283 470.76V460.8C246.283 458.827 245.963 457.44 245.323 456.64C244.683 455.813 243.763 455.4 242.563 455.4C241.683 455.4 240.709 455.667 239.643 456.2C238.576 456.733 237.576 457.773 236.643 459.32V470.76C236.643 471.693 236.683 472.24 236.763 472.4C236.843 472.56 237.096 472.667 237.523 472.72L239.723 472.96V474H230.283V472.96L232.483 472.72C232.909 472.667 233.163 472.56 233.243 472.4C233.323 472.24 233.363 471.693 233.363 470.76V457.44C233.363 456.507 233.323 455.96 233.243 455.8C233.163 455.64 232.909 455.533 232.483 455.48L230.283 455.28V454.2H236.443V457.44C237.403 456.16 238.483 455.24 239.683 454.68C240.909 454.093 242.136 453.8 243.363 453.8C245.336 453.8 246.856 454.413 247.923 455.64C249.016 456.84 249.563 458.547 249.563 460.76V470.76C249.563 471.693 249.603 472.24 249.683 472.4C249.763 472.56 250.016 472.667 250.443 472.72L252.643 472.96ZM268.17 469.92C267.77 471.467 267.144 472.6 266.29 473.32C265.437 474.04 264.344 474.4 263.01 474.4C261.73 474.4 260.69 474.12 259.89 473.56C259.09 472.973 258.504 472.213 258.13 471.28C257.757 470.347 257.57 469.373 257.57 468.36V457.44C257.57 456.507 257.53 455.96 257.45 455.8C257.397 455.64 257.144 455.533 256.69 455.48L254.49 455.28V454.2H257.57V448.96L260.85 448.28V454.2H267.37V455.48H260.85V468.68C260.85 470.36 261.077 471.52 261.53 472.16C262.01 472.8 262.637 473.12 263.41 473.12C264.184 473.12 264.77 472.827 265.17 472.24C265.597 471.653 265.904 470.693 266.09 469.36L268.17 469.92ZM288.839 463.68V464.48C288.839 467.493 288.079 469.907 286.559 471.72C285.066 473.507 282.932 474.4 280.159 474.4C277.412 474.4 275.279 473.507 273.759 471.72C272.266 469.907 271.519 467.493 271.519 464.48V463.68C271.519 460.693 272.266 458.307 273.759 456.52C275.252 454.707 277.386 453.8 280.159 453.8C282.932 453.8 285.066 454.707 286.559 456.52C288.079 458.307 288.839 460.693 288.839 463.68ZM285.239 462.88C285.239 460.107 284.799 458.12 283.919 456.92C283.066 455.693 281.812 455.08 280.159 455.08C278.532 455.08 277.279 455.693 276.399 456.92C275.546 458.12 275.119 460.107 275.119 462.88V465.28C275.119 468.08 275.546 470.093 276.399 471.32C277.279 472.52 278.532 473.12 280.159 473.12C281.812 473.12 283.066 472.52 283.919 471.32C284.799 470.093 285.239 468.08 285.239 465.28V462.88ZM295.8 474.4C295.133 474.4 294.586 474.187 294.16 473.76C293.76 473.333 293.56 472.787 293.56 472.12C293.56 471.453 293.76 470.92 294.16 470.52C294.586 470.093 295.133 469.88 295.8 469.88C296.493 469.88 297.053 470.093 297.48 470.52C297.906 470.92 298.12 471.453 298.12 472.12C298.12 472.787 297.906 473.333 297.48 473.76C297.053 474.187 296.493 474.4 295.8 474.4Z" fill="#6E4C36"/>
<circle cx="132" cy="442" r="3" fill="#F5C1BA"/>
<circle cx="190" cy="442" r="3" fill="#B0D1B3"/>
<circle cx="242" cy="442" r="3" fill="#9AC6E4"/>
<circle cx="280" cy="442" r="3" fill="#FCCB52"/>
</g>
<defs>
<filter id="filter0_n_142_2" x="0" y="0" width="412" height="917" filterUnits="userSpaceOnUse" color-interpolation-filters="sRGB">
<feFlood flood-opacity="0" result="BackgroundImageFix"/>
<feBlend mode="normal" in="SourceGraphic" in2="BackgroundImageFix" result="shape"/>
<feTurbulence type="fractalNoise" baseFrequency="2 2" stitchTiles="stitch" numOctaves="3" result="noise" seed="6867" />
<feColorMatrix in="noise" type="luminanceToAlpha" result="alphaNoise" />
<feComponentTransfer in="alphaNoise" result="coloredNoise1">
<feFuncA type="discrete" tableValues="1 1 1 1 1 1 1 1 1 1 1 1 1 1 1 1 1 1 1 1 1 1 1 1 1 1 1 1 1 1 1 1 1 1 1 1 1 1 1 1 1 1 1 1 1 1 1 1 1 1 1 0 0 0 0 0 0 0 0 0 0 0 0 0 0 0 0 0 0 0 0 0 0 0 0 0 0 0 0 0 0 0 0 0 0 0 0 0 0 0 0 0 0 0 0 0 0 0 0 0 "/>
</feComponentTransfer>
<feComposite operator="in" in2="shape" in="coloredNoise1" result="noise1Clipped" />
<feFlood flood-color="rgba(0, 0, 0, 0.25)" result="color1Flood" />
<feComposite operator="in" in2="noise1Clipped" in="color1Flood" result="color1" />
<feMerge result="effect1_noise_142_2">
<feMergeNode in="shape" />
<feMergeNode in="color1" />
</feMerge>
</filter>
</defs>
</svg>
