<svg width="221" height="52" viewBox="0 0 221 52" fill="none" xmlns="http://www.w3.org/2000/svg">
<path d="M39.3678 39.96V41H29.9278V39.96L32.1278 39.72C32.5545 39.6667 32.8078 39.56 32.8878 39.4C32.9678 39.24 33.0078 38.6933 33.0078 37.76V27.8C33.0078 25.8267 32.7011 24.44 32.0878 23.64C31.5011 22.8133 30.6345 22.4 29.4878 22.4C28.6611 22.4 27.7278 22.6667 26.6878 23.2C25.6745 23.7333 24.7011 24.76 23.7678 26.28V37.76C23.7678 38.6933 23.8078 39.24 23.8878 39.4C23.9678 39.56 24.2211 39.6667 24.6478 39.72L26.8478 39.96V41H17.4078V39.96L19.6078 39.72C20.0345 39.6667 20.2878 39.56 20.3678 39.4C20.4478 39.24 20.4878 38.6933 20.4878 37.76V24.44C20.4878 23.5067 20.4478 22.96 20.3678 22.8C20.2878 22.64 20.0345 22.5333 19.6078 22.48L17.4078 22.28V21.2H23.5678V24.44C24.5011 23.1867 25.5545 22.2667 26.7278 21.68C27.9278 21.0933 29.1145 20.8 30.2878 20.8C33.1678 20.8 35.0211 22.12 35.8478 24.76C36.8345 23.3733 37.9278 22.3733 39.1278 21.76C40.3545 21.12 41.5811 20.8 42.8078 20.8C44.7011 20.8 46.1678 21.4133 47.2078 22.64C48.2745 23.84 48.8078 25.5467 48.8078 27.76V37.76C48.8078 38.6933 48.8478 39.24 48.9278 39.4C49.0078 39.56 49.2611 39.6667 49.6878 39.72L51.8878 39.96V41H42.4478V39.96L44.6478 39.72C45.0745 39.6667 45.3278 39.56 45.4078 39.4C45.4878 39.24 45.5278 38.6933 45.5278 37.76V27.8C45.5278 25.8267 45.2211 24.44 44.6078 23.64C44.0211 22.8133 43.1545 22.4 42.0078 22.4C41.1811 22.4 40.2345 22.68 39.1678 23.24C38.1278 23.7733 37.1411 24.8267 36.2078 26.4C36.2345 26.6133 36.2478 26.84 36.2478 27.08C36.2745 27.2933 36.2878 27.52 36.2878 27.76V37.76C36.2878 38.6933 36.3278 39.24 36.4078 39.4C36.4878 39.56 36.7411 39.6667 37.1678 39.72L39.3678 39.96ZM72.6047 30.68V31.48C72.6047 34.4933 71.8447 36.9067 70.3247 38.72C68.8314 40.5067 66.698 41.4 63.9247 41.4C61.178 41.4 59.0447 40.5067 57.5247 38.72C56.0314 36.9067 55.2847 34.4933 55.2847 31.48V30.68C55.2847 27.6933 56.0314 25.3067 57.5247 23.52C59.018 21.7067 61.1514 20.8 63.9247 20.8C66.698 20.8 68.8314 21.7067 70.3247 23.52C71.8447 25.3067 72.6047 27.6933 72.6047 30.68ZM69.0047 29.88C69.0047 27.1067 68.5647 25.12 67.6847 23.92C66.8314 22.6933 65.578 22.08 63.9247 22.08C62.298 22.08 61.0447 22.6933 60.1647 23.92C59.3114 25.12 58.8847 27.1067 58.8847 29.88V32.28C58.8847 35.08 59.3114 37.0933 60.1647 38.32C61.0447 39.52 62.298 40.12 63.9247 40.12C65.578 40.12 66.8314 39.52 67.6847 38.32C68.5647 37.0933 69.0047 35.08 69.0047 32.28V29.88ZM98.4303 39.96V41H88.9903V39.96L91.1903 39.72C91.617 39.6667 91.8703 39.56 91.9503 39.4C92.0303 39.24 92.0703 38.6933 92.0703 37.76V27.8C92.0703 25.8267 91.7636 24.44 91.1503 23.64C90.5636 22.8133 89.697 22.4 88.5503 22.4C87.7236 22.4 86.7903 22.6667 85.7503 23.2C84.737 23.7333 83.7636 24.76 82.8303 26.28V37.76C82.8303 38.6933 82.8703 39.24 82.9503 39.4C83.0303 39.56 83.2836 39.6667 83.7103 39.72L85.9103 39.96V41H76.4703V39.96L78.6703 39.72C79.097 39.6667 79.3503 39.56 79.4303 39.4C79.5103 39.24 79.5503 38.6933 79.5503 37.76V24.44C79.5503 23.5067 79.5103 22.96 79.4303 22.8C79.3503 22.64 79.097 22.5333 78.6703 22.48L76.4703 22.28V21.2H82.6303V24.44C83.5636 23.1867 84.617 22.2667 85.7903 21.68C86.9903 21.0933 88.177 20.8 89.3503 20.8C92.2303 20.8 94.0836 22.12 94.9103 24.76C95.897 23.3733 96.9903 22.3733 98.1903 21.76C99.417 21.12 100.644 20.8 101.87 20.8C103.764 20.8 105.23 21.4133 106.27 22.64C107.337 23.84 107.87 25.5467 107.87 27.76V37.76C107.87 38.6933 107.91 39.24 107.99 39.4C108.07 39.56 108.324 39.6667 108.75 39.72L110.95 39.96V41H101.51V39.96L103.71 39.72C104.137 39.6667 104.39 39.56 104.47 39.4C104.55 39.24 104.59 38.6933 104.59 37.76V27.8C104.59 25.8267 104.284 24.44 103.67 23.64C103.084 22.8133 102.217 22.4 101.07 22.4C100.244 22.4 99.297 22.68 98.2303 23.24C97.1903 23.7733 96.2036 24.8267 95.2703 26.4C95.297 26.6133 95.3103 26.84 95.3103 27.08C95.337 27.2933 95.3503 27.52 95.3503 27.76V37.76C95.3503 38.6933 95.3903 39.24 95.4703 39.4C95.5503 39.56 95.8036 39.6667 96.2303 39.72L98.4303 39.96ZM130.307 36.44C129.827 38.2533 128.921 39.5333 127.587 40.28C126.281 41.0267 124.827 41.4 123.227 41.4C120.267 41.4 118.054 40.5067 116.587 38.72C115.121 36.9067 114.387 34.4933 114.387 31.48V30.68C114.387 27.6933 115.094 25.3067 116.507 23.52C117.921 21.7067 119.974 20.8 122.667 20.8C124.107 20.8 125.414 21.0933 126.587 21.68C127.787 22.2667 128.734 23.1333 129.427 24.28C130.147 25.4267 130.507 26.8533 130.507 28.56C130.507 29.36 130.427 30.2 130.267 31.08H117.987V32.28C117.987 35.08 118.414 37.0933 119.267 38.32C120.147 39.52 121.561 40.12 123.507 40.12C124.734 40.12 125.747 39.8 126.547 39.16C127.374 38.52 127.921 37.4133 128.187 35.84L130.307 36.44ZM122.667 22.08C121.094 22.08 119.921 22.68 119.147 23.88C118.374 25.08 117.987 27.0533 117.987 29.8H126.987V29.68C127.041 29.3333 127.081 29 127.107 28.68C127.134 28.3333 127.147 28.0267 127.147 27.76C127.147 25.76 126.734 24.32 125.907 23.44C125.081 22.5333 124.001 22.08 122.667 22.08ZM156.643 39.96V41H147.203V39.96L149.403 39.72C149.829 39.6667 150.083 39.56 150.163 39.4C150.243 39.24 150.283 38.6933 150.283 37.76V27.8C150.283 25.8267 149.963 24.44 149.323 23.64C148.683 22.8133 147.763 22.4 146.563 22.4C145.683 22.4 144.709 22.6667 143.643 23.2C142.576 23.7333 141.576 24.7733 140.643 26.32V37.76C140.643 38.6933 140.683 39.24 140.763 39.4C140.843 39.56 141.096 39.6667 141.523 39.72L143.723 39.96V41H134.283V39.96L136.483 39.72C136.909 39.6667 137.163 39.56 137.243 39.4C137.323 39.24 137.363 38.6933 137.363 37.76V24.44C137.363 23.5067 137.323 22.96 137.243 22.8C137.163 22.64 136.909 22.5333 136.483 22.48L134.283 22.28V21.2H140.443V24.44C141.403 23.16 142.483 22.24 143.683 21.68C144.909 21.0933 146.136 20.8 147.363 20.8C149.336 20.8 150.856 21.4133 151.923 22.64C153.016 23.84 153.563 25.5467 153.563 27.76V37.76C153.563 38.6933 153.603 39.24 153.683 39.4C153.763 39.56 154.016 39.6667 154.443 39.72L156.643 39.96ZM172.17 36.92C171.77 38.4667 171.144 39.6 170.29 40.32C169.437 41.04 168.344 41.4 167.01 41.4C165.73 41.4 164.69 41.12 163.89 40.56C163.09 39.9733 162.504 39.2133 162.13 38.28C161.757 37.3467 161.57 36.3733 161.57 35.36V24.44C161.57 23.5067 161.53 22.96 161.45 22.8C161.397 22.64 161.144 22.5333 160.69 22.48L158.49 22.28V21.2H161.57V15.96L164.85 15.28V21.2H171.37V22.48H164.85V35.68C164.85 37.36 165.077 38.52 165.53 39.16C166.01 39.8 166.637 40.12 167.41 40.12C168.184 40.12 168.77 39.8267 169.17 39.24C169.597 38.6533 169.904 37.6933 170.09 36.36L172.17 36.92ZM192.839 30.68V31.48C192.839 34.4933 192.079 36.9067 190.559 38.72C189.066 40.5067 186.932 41.4 184.159 41.4C181.412 41.4 179.279 40.5067 177.759 38.72C176.266 36.9067 175.519 34.4933 175.519 31.48V30.68C175.519 27.6933 176.266 25.3067 177.759 23.52C179.252 21.7067 181.386 20.8 184.159 20.8C186.932 20.8 189.066 21.7067 190.559 23.52C192.079 25.3067 192.839 27.6933 192.839 30.68ZM189.239 29.88C189.239 27.1067 188.799 25.12 187.919 23.92C187.066 22.6933 185.812 22.08 184.159 22.08C182.532 22.08 181.279 22.6933 180.399 23.92C179.546 25.12 179.119 27.1067 179.119 29.88V32.28C179.119 35.08 179.546 37.0933 180.399 38.32C181.279 39.52 182.532 40.12 184.159 40.12C185.812 40.12 187.066 39.52 187.919 38.32C188.799 37.0933 189.239 35.08 189.239 32.28V29.88ZM199.8 41.4C199.133 41.4 198.586 41.1867 198.16 40.76C197.76 40.3333 197.56 39.7867 197.56 39.12C197.56 38.4533 197.76 37.92 198.16 37.52C198.586 37.0933 199.133 36.88 199.8 36.88C200.493 36.88 201.053 37.0933 201.48 37.52C201.906 37.92 202.12 38.4533 202.12 39.12C202.12 39.7867 201.906 40.3333 201.48 40.76C201.053 41.1867 200.493 41.4 199.8 41.4Z" fill="#6E4C36"/>
<circle cx="36" cy="10" r="6" fill="#F5C1BA"/>
<ellipse cx="94.5" cy="10" rx="5.5" ry="6" fill="#B0D1B3"/>
<circle cx="145" cy="10" r="6" fill="#9AC6E4"/>
<circle cx="185" cy="10" r="6" fill="#FCCB52"/>
</svg>
