<svg width="119" height="26" viewBox="0 0 119 26" fill="none" xmlns="http://www.w3.org/2000/svg">
<path d="M16.7019 24.328V25H10.2459V24.328L11.5659 24.16C11.8219 24.128 11.9739 24.064 12.0219 23.968C12.0699 23.856 12.0939 23.528 12.0939 22.984V16.936C12.0939 15.832 11.9419 15.032 11.6379 14.536C11.3339 14.024 10.8779 13.768 10.2699 13.768C10.0139 13.768 9.70991 13.84 9.35791 13.984C9.00591 14.112 8.65391 14.352 8.30191 14.704C7.96591 15.056 7.66991 15.576 7.41391 16.264V22.984C7.41391 23.528 7.43791 23.856 7.48591 23.968C7.53391 24.064 7.68591 24.128 7.94191 24.16L9.26191 24.328V25H2.80591V24.328L4.12591 24.16C4.38191 24.128 4.53391 24.064 4.58191 23.968C4.62991 23.856 4.65391 23.528 4.65391 22.984V14.848C4.65391 14.304 4.62991 13.984 4.58191 13.888C4.53391 13.776 4.38191 13.704 4.12591 13.672L2.80591 13.504V12.832H7.26991V14.944C7.71791 14.128 8.29391 13.536 8.99791 13.168C9.70191 12.784 10.4139 12.592 11.1339 12.592C11.9979 12.592 12.7259 12.816 13.3179 13.264C13.9259 13.696 14.3579 14.32 14.6139 15.136C15.0459 14.24 15.6299 13.592 16.3659 13.192C17.1019 12.792 17.8379 12.592 18.5739 12.592C19.7099 12.592 20.6139 12.968 21.2859 13.72C21.9579 14.472 22.2939 15.536 22.2939 16.912V22.984C22.2939 23.528 22.3179 23.856 22.3659 23.968C22.4139 24.064 22.5659 24.128 22.8219 24.16L24.1419 24.328V25H17.6859V24.328L19.0059 24.16C19.2619 24.128 19.4139 24.064 19.4619 23.968C19.5099 23.856 19.5339 23.528 19.5339 22.984V16.936C19.5339 15.832 19.3819 15.032 19.0779 14.536C18.7739 14.024 18.3179 13.768 17.7099 13.768C17.4539 13.768 17.1499 13.84 16.7979 13.984C16.4459 14.112 16.0939 14.36 15.7419 14.728C15.3899 15.096 15.0859 15.632 14.8299 16.336C14.8459 16.416 14.8539 16.512 14.8539 16.624C14.8539 16.72 14.8539 16.816 14.8539 16.912V22.984C14.8539 23.528 14.8779 23.856 14.9259 23.968C14.9739 24.064 15.1259 24.128 15.3819 24.16L16.7019 24.328ZM36.6423 18.664V19.144C36.6423 20.984 36.1623 22.464 35.2023 23.584C34.2583 24.688 32.9063 25.24 31.1463 25.24C29.3863 25.24 28.0263 24.688 27.0663 23.584C26.1223 22.464 25.6503 20.984 25.6503 19.144V18.664C25.6503 16.824 26.1223 15.352 27.0663 14.248C28.0263 13.144 29.3863 12.592 31.1463 12.592C32.9063 12.592 34.2583 13.144 35.2023 14.248C36.1623 15.352 36.6423 16.824 36.6423 18.664ZM33.6903 18.184C33.6903 16.472 33.4743 15.256 33.0423 14.536C32.6103 13.8 31.9783 13.432 31.1463 13.432C30.3303 13.432 29.6983 13.8 29.2503 14.536C28.8183 15.256 28.6023 16.472 28.6023 18.184V19.624C28.6023 21.32 28.8183 22.544 29.2503 23.296C29.6983 24.032 30.3303 24.4 31.1463 24.4C31.9783 24.4 32.6103 24.032 33.0423 23.296C33.4743 22.544 33.6903 21.32 33.6903 19.624V18.184ZM52.3269 24.328V25H45.8709V24.328L47.1909 24.16C47.4469 24.128 47.5989 24.064 47.6469 23.968C47.6949 23.856 47.7189 23.528 47.7189 22.984V16.936C47.7189 15.832 47.5669 15.032 47.2629 14.536C46.9589 14.024 46.5029 13.768 45.8949 13.768C45.6389 13.768 45.3349 13.84 44.9829 13.984C44.6309 14.112 44.2789 14.352 43.9269 14.704C43.5909 15.056 43.2949 15.576 43.0389 16.264V22.984C43.0389 23.528 43.0629 23.856 43.1109 23.968C43.1589 24.064 43.3109 24.128 43.5669 24.16L44.8869 24.328V25H38.4309V24.328L39.7509 24.16C40.0069 24.128 40.1589 24.064 40.2069 23.968C40.2549 23.856 40.2789 23.528 40.2789 22.984V14.848C40.2789 14.304 40.2549 13.984 40.2069 13.888C40.1589 13.776 40.0069 13.704 39.7509 13.672L38.4309 13.504V12.832H42.8949V14.944C43.3429 14.128 43.9189 13.536 44.6229 13.168C45.3269 12.784 46.0389 12.592 46.7589 12.592C47.6229 12.592 48.3509 12.816 48.9429 13.264C49.5509 13.696 49.9829 14.32 50.2389 15.136C50.6709 14.24 51.2549 13.592 51.9909 13.192C52.7269 12.792 53.4629 12.592 54.1989 12.592C55.3349 12.592 56.2389 12.968 56.9109 13.72C57.5829 14.472 57.9189 15.536 57.9189 16.912V22.984C57.9189 23.528 57.9429 23.856 57.9909 23.968C58.0389 24.064 58.1909 24.128 58.4469 24.16L59.7669 24.328V25H53.3109V24.328L54.6309 24.16C54.8869 24.128 55.0389 24.064 55.0869 23.968C55.1349 23.856 55.1589 23.528 55.1589 22.984V16.936C55.1589 15.832 55.0069 15.032 54.7029 14.536C54.3989 14.024 53.9429 13.768 53.3349 13.768C53.0789 13.768 52.7749 13.84 52.4229 13.984C52.0709 14.112 51.7189 14.36 51.3669 14.728C51.0149 15.096 50.7109 15.632 50.4549 16.336C50.4709 16.416 50.4789 16.512 50.4789 16.624C50.4789 16.72 50.4789 16.816 50.4789 16.912V22.984C50.4789 23.528 50.5029 23.856 50.5509 23.968C50.5989 24.064 50.7509 24.128 51.0069 24.16L52.3269 24.328ZM71.4033 22.144C71.1153 23.264 70.5793 24.064 69.7953 24.544C69.0113 25.008 68.0993 25.24 67.0593 25.24C65.1393 25.24 63.6993 24.688 62.7393 23.584C61.7793 22.464 61.2993 20.984 61.2993 19.144V18.664C61.2993 16.824 61.7473 15.352 62.6433 14.248C63.5553 13.144 64.8673 12.592 66.5793 12.592C67.5393 12.592 68.3873 12.784 69.1233 13.168C69.8753 13.536 70.4593 14.072 70.8753 14.776C71.3073 15.48 71.5233 16.336 71.5233 17.344C71.5233 17.584 71.5073 17.84 71.4753 18.112C71.4593 18.384 71.4193 18.656 71.3553 18.928H64.2513V19.624C64.2513 21.32 64.4913 22.544 64.9713 23.296C65.4513 24.032 66.2273 24.4 67.2993 24.4C67.9873 24.4 68.5713 24.2 69.0513 23.8C69.5313 23.384 69.8033 22.688 69.8673 21.712L71.4033 22.144ZM66.5793 13.432C65.7953 13.432 65.2113 13.792 64.8273 14.512C64.4433 15.232 64.2513 16.424 64.2513 18.088H68.5953C68.6593 17.768 68.6993 17.472 68.7153 17.2C68.7473 16.912 68.7633 16.648 68.7633 16.408C68.7633 15.384 68.5633 14.632 68.1633 14.152C67.7633 13.672 67.2353 13.432 66.5793 13.432ZM87.4185 24.328V25H80.9625V24.328L82.2825 24.16C82.5385 24.128 82.6905 24.064 82.7385 23.968C82.7865 23.856 82.8105 23.528 82.8105 22.984V16.936C82.8105 15.832 82.6425 15.032 82.3065 14.536C81.9865 14.024 81.5065 13.768 80.8665 13.768C80.5945 13.768 80.2745 13.84 79.9065 13.984C79.5545 14.112 79.1945 14.352 78.8265 14.704C78.4745 15.056 78.1625 15.576 77.8905 16.264V22.984C77.8905 23.528 77.9145 23.856 77.9625 23.968C78.0105 24.064 78.1625 24.128 78.4185 24.16L79.7385 24.328V25H73.2825V24.328L74.6025 24.16C74.8585 24.128 75.0105 24.064 75.0585 23.968C75.1065 23.856 75.1305 23.528 75.1305 22.984V14.848C75.1305 14.304 75.1065 13.984 75.0585 13.888C75.0105 13.776 74.8585 13.704 74.6025 13.672L73.2825 13.504V12.832H77.7465V14.944C78.2105 14.128 78.8025 13.536 79.5225 13.168C80.2585 12.784 80.9945 12.592 81.7305 12.592C82.9145 12.592 83.8505 12.968 84.5385 13.72C85.2265 14.472 85.5705 15.536 85.5705 16.912V22.984C85.5705 23.528 85.5945 23.856 85.6425 23.968C85.6905 24.064 85.8425 24.128 86.0985 24.16L87.4185 24.328ZM96.7796 22.504C96.5716 23.48 96.1716 24.184 95.5796 24.616C95.0036 25.032 94.2996 25.24 93.4676 25.24C92.6196 25.24 91.9236 25.056 91.3796 24.688C90.8356 24.304 90.4356 23.8 90.1796 23.176C89.9236 22.552 89.7956 21.888 89.7956 21.184V14.848C89.7956 14.304 89.7716 13.984 89.7236 13.888C89.6756 13.776 89.5236 13.704 89.2676 13.672L87.9476 13.504V12.832H89.7956V10.048L92.5556 9.496V12.832H96.3956V13.672H92.5556V21.664C92.5556 22.688 92.6836 23.4 92.9396 23.8C93.1956 24.184 93.5236 24.376 93.9236 24.376C94.3396 24.376 94.6596 24.216 94.8836 23.896C95.1236 23.576 95.2756 22.992 95.3396 22.144L96.7796 22.504ZM109.392 18.664V19.144C109.392 20.984 108.912 22.464 107.952 23.584C107.008 24.688 105.656 25.24 103.896 25.24C102.136 25.24 100.776 24.688 99.8163 23.584C98.8723 22.464 98.4003 20.984 98.4003 19.144V18.664C98.4003 16.824 98.8723 15.352 99.8163 14.248C100.776 13.144 102.136 12.592 103.896 12.592C105.656 12.592 107.008 13.144 107.952 14.248C108.912 15.352 109.392 16.824 109.392 18.664ZM106.44 18.184C106.44 16.472 106.224 15.256 105.792 14.536C105.36 13.8 104.728 13.432 103.896 13.432C103.08 13.432 102.448 13.8 102 14.536C101.568 15.256 101.352 16.472 101.352 18.184V19.624C101.352 21.32 101.568 22.544 102 23.296C102.448 24.032 103.08 24.4 103.896 24.4C104.728 24.4 105.36 24.032 105.792 23.296C106.224 22.544 106.44 21.32 106.44 19.624V18.184ZM113.677 25.24C113.181 25.24 112.773 25.088 112.453 24.784C112.149 24.464 111.997 24.048 111.997 23.536C111.997 23.024 112.149 22.616 112.453 22.312C112.773 22.008 113.181 21.856 113.677 21.856C114.173 21.856 114.581 22.008 114.901 22.312C115.221 22.616 115.381 23.024 115.381 23.536C115.381 24.048 115.221 24.464 114.901 24.784C114.581 25.088 114.173 25.24 113.677 25.24Z" fill="#6E4C36"/>
<circle cx="13" cy="4" r="4" fill="#F5C1BA"/>
<circle cx="49" cy="4" r="4" fill="#B0D1B3"/>
<circle cx="80" cy="4" r="4" fill="#9AC6E4"/>
<circle cx="103" cy="4" r="4" fill="#FCCB52"/>
</svg>
