<svg width="56" height="56" viewBox="0 0 56 56" fill="none" xmlns="http://www.w3.org/2000/svg">
<path d="M19.9033 15.5C23.3674 9.5 32.0281 9.5 35.4922 15.5L42.1582 27.0459C45.6222 33.0458 41.2922 40.5456 34.3643 40.5459H21.0312C14.1031 40.5459 9.7732 33.0459 13.2373 27.0459L19.9033 15.5Z" fill="#9AC6E4" stroke="#462B18" stroke-width="2"/>
<ellipse cx="22.6621" cy="23.7807" rx="1.39887" ry="2.14493" fill="#443623"/>
<ellipse cx="32.5471" cy="23.7807" rx="1.39887" ry="2.14493" fill="#443623"/>
<path d="M31.1481 29.8904C31.1481 30.8942 29.6033 31.7079 27.6976 31.7079C25.7919 31.7079 24.2471 30.8942 24.2471 29.8904C24.2471 28.8866 25.7919 30.9619 27.6976 30.9619C29.6033 30.9619 31.1481 28.8866 31.1481 29.8904Z" fill="#443623"/>
</svg>
