<svg width="50" height="50" viewBox="0 0 50 50" fill="none" xmlns="http://www.w3.org/2000/svg">
<path d="M20.002 12.2256C22.0138 8.14904 27.827 8.14904 29.8389 12.2256C30.9291 14.4346 33.0368 15.9651 35.4746 16.3193C39.9731 16.973 41.7694 22.5016 38.5146 25.6748C36.7507 27.3942 35.9451 29.8719 36.3613 32.2998C37.1298 36.7804 32.4271 40.1975 28.4033 38.082C26.2229 36.9358 23.6179 36.9357 21.4375 38.082C17.4137 40.1975 12.711 36.7804 13.4795 32.2998C13.8958 29.8719 13.0911 27.3942 11.3271 25.6748C8.07191 22.5017 9.86768 16.9732 14.3662 16.3193C16.804 15.9651 18.9117 14.4345 20.002 12.2256Z" fill="#FCCB52" stroke="#443623" stroke-width="2"/>
<ellipse cx="20.3585" cy="21.8795" rx="1.26715" ry="1.94296" fill="#443623"/>
<ellipse cx="29.3135" cy="21.8795" rx="1.26715" ry="1.94296" fill="#443623"/>
<path d="M28.0462 27.4134C28.0462 28.3227 26.6468 29.0598 24.9205 29.0598C23.1943 29.0598 21.7949 28.3227 21.7949 27.4134C21.7949 26.5041 23.1943 28.384 24.9205 28.384C26.6468 28.384 28.0462 26.5041 28.0462 27.4134Z" fill="#443623"/>
</svg>
