<svg width="39" height="35" viewBox="0 0 39 35" fill="none" xmlns="http://www.w3.org/2000/svg">
<path d="M21.0068 1C30.1107 1.00004 37.4912 8.38047 37.4912 17.4844C37.4911 26.5882 30.1107 33.9677 21.0068 33.9678C19.0583 33.9678 16.6501 33.6701 14.1689 33.1074C10.65 32.3093 8.24513 30.19 6.80664 27.377C5.35497 24.5381 4.87931 20.9651 5.33203 17.335C6.24432 10.0212 10.8333 2.93729 17.9443 1.33984C18.933 1.11775 19.9564 1 21.0068 1Z" fill="#F5C1BA" stroke="#443623" stroke-width="2"/>
<ellipse cx="15.7453" cy="13.4273" rx="1.44896" ry="2.22174" fill="#443623"/>
<ellipse cx="25.9851" cy="13.4273" rx="1.44896" ry="2.22174" fill="#443623"/>
<path d="M24.5354 19.7552C24.5354 20.7949 22.9352 21.6378 20.9613 21.6378C18.9874 21.6378 17.3872 20.7949 17.3872 19.7552C17.3872 18.7155 18.9874 20.865 20.9613 20.865C22.9352 20.865 24.5354 18.7155 24.5354 19.7552Z" fill="#443623"/>
</svg>
