<svg width="94" height="83" viewBox="0 0 94 83" fill="none" xmlns="http://www.w3.org/2000/svg">
<path d="M28.6885 47C38.1058 47 45.7402 54.6344 45.7402 64.0518C45.7401 73.469 38.1057 81.1035 28.6885 81.1035C26.4703 81.1035 23.6801 80.7297 20.8516 80.0312C13.9366 78.3236 11.199 71.4561 12.1582 64.0928C13.1166 56.7365 17.7286 49.5114 24.7842 47.5371C26.0328 47.1878 27.3393 47 28.6885 47Z" fill="#F5C1BA" stroke="#443623" stroke-width="2"/>
<ellipse cx="23.2562" cy="59.8632" rx="1.49599" ry="2.29385" fill="#443623"/>
<ellipse cx="33.8285" cy="59.8632" rx="1.49599" ry="2.29385" fill="#443623"/>
<path d="M32.3319 66.3967C32.3319 67.4702 30.6797 68.3405 28.6418 68.3405C26.6038 68.3405 24.9517 67.4702 24.9517 66.3967C24.9517 65.3233 26.6038 67.5426 28.6418 67.5426C30.6797 67.5426 32.3319 65.3233 32.3319 66.3967Z" fill="#443623"/>
<rect x="53.9995" y="47" width="32.6739" height="32.6739" rx="9" fill="#B0D1B3" stroke="#443623" stroke-width="2"/>
<ellipse cx="65.4861" cy="61.1813" rx="1.34743" ry="2.06606" fill="#443623"/>
<ellipse cx="75.0073" cy="61.1813" rx="1.34743" ry="2.06606" fill="#443623"/>
<path d="M73.6603 67.0659C73.6603 68.0328 72.1722 68.8166 70.3366 68.8166C68.501 68.8166 67.0129 68.0328 67.0129 67.0659C67.0129 66.099 68.501 68.0979 70.3366 68.0979C72.1722 68.0979 73.6603 66.099 73.6603 67.0659Z" fill="#443623"/>
<path d="M21.8159 15.5C25.28 9.5 33.9407 9.5 37.4048 15.5L45.7271 29.916C49.1912 35.916 44.8613 43.416 37.9331 43.416H21.2866C14.3587 43.4157 10.0288 35.9159 13.4927 29.916L21.8159 15.5Z" fill="#9AC6E4" stroke="#462B18" stroke-width="2"/>
<ellipse cx="24.2269" cy="25.423" rx="1.49549" ry="2.29308" fill="#443623"/>
<ellipse cx="34.7948" cy="25.423" rx="1.49549" ry="2.29308" fill="#443623"/>
<path d="M33.2991 31.9543C33.2991 33.0274 31.6476 33.8973 29.6103 33.8973C27.5729 33.8973 25.9214 33.0274 25.9214 31.9543C25.9214 30.8811 27.5729 33.0997 29.6103 33.0997C31.6476 33.0997 33.2991 30.8811 33.2991 31.9543Z" fill="#443623"/>
<path d="M61.854 14.751C63.972 10.4595 70.0915 10.4595 72.2095 14.751C73.3418 17.0453 75.531 18.635 78.063 19.0029C82.7988 19.6911 84.6898 25.5111 81.2632 28.8516C79.4311 30.6374 78.5945 33.2107 79.0269 35.7324C79.8358 40.4491 74.8858 44.0461 70.6499 41.8193C68.3852 40.6287 65.6793 40.6287 63.4146 41.8193C59.1787 44.0463 54.2276 40.4492 55.0366 35.7324C55.469 33.2107 54.6334 30.6375 52.8013 28.8516C49.3745 25.5111 51.2656 19.6911 56.0015 19.0029C58.5332 18.6349 60.7216 17.0451 61.854 14.751Z" fill="#FCCB52" stroke="#443623" stroke-width="2"/>
<ellipse cx="62.2665" cy="24.8548" rx="1.32364" ry="2.02958" fill="#443623"/>
<ellipse cx="71.6215" cy="24.8548" rx="1.32364" ry="2.02958" fill="#443623"/>
<path d="M70.2973 30.6354C70.2973 31.5852 68.8355 32.3552 67.0323 32.3552C65.2291 32.3552 63.7673 31.5852 63.7673 30.6354C63.7673 29.6856 65.2291 31.6493 67.0323 31.6493C68.8355 31.6493 70.2973 29.6856 70.2973 30.6354Z" fill="#443623"/>
</svg>
