<svg width="412" height="917" viewBox="0 0 412 917" fill="none" xmlns="http://www.w3.org/2000/svg">
<g clip-path="url(#clip0_104_55)">
<rect width="412" height="917" fill="#FFFDEC"/>
<g filter="url(#filter0_n_104_55)">
<rect width="412" height="917" fill="#FFFDEB"/>
</g>
<path d="M133.265 120.7H134.725V122.1C134.725 122.887 134.585 123.633 134.305 124.34C134.039 125.047 133.665 125.707 133.185 126.32C132.719 126.92 132.172 127.46 131.545 127.94C130.932 128.42 130.272 128.827 129.565 129.16C128.872 129.493 128.165 129.747 127.445 129.92L126.705 128.54C127.332 128.407 127.959 128.2 128.585 127.92C129.225 127.64 129.825 127.3 130.385 126.9C130.945 126.487 131.439 126.027 131.865 125.52C132.305 125.013 132.645 124.473 132.885 123.9C133.139 123.313 133.265 122.713 133.265 122.1V120.7ZM133.585 120.7H135.005V122.1C135.005 122.713 135.132 123.313 135.385 123.9C135.639 124.473 135.979 125.013 136.405 125.52C136.845 126.027 137.345 126.487 137.905 126.9C138.465 127.3 139.059 127.647 139.685 127.94C140.325 128.22 140.965 128.42 141.605 128.54L140.845 129.92C140.125 129.747 139.419 129.493 138.725 129.16C138.032 128.827 137.372 128.42 136.745 127.94C136.132 127.46 135.585 126.92 135.105 126.32C134.625 125.707 134.252 125.047 133.985 124.34C133.719 123.633 133.585 122.887 133.585 122.1V120.7ZM126.025 133.74H142.425V135.12H126.025V133.74ZM146.524 128.86H158.944V130.2H146.524V128.86ZM144.424 133.94H160.824V135.3H144.424V133.94ZM151.764 129.54H153.424V134.56H151.764V129.54ZM146.524 120.94H158.764V122.3H148.204V129.36H146.524V120.94ZM147.684 124.82H158.364V126.16H147.684V124.82ZM176.002 119.46H177.642V137.58H176.002V119.46ZM163.862 131.82H165.362C166.389 131.82 167.376 131.807 168.322 131.78C169.282 131.74 170.249 131.673 171.222 131.58C172.209 131.487 173.236 131.353 174.302 131.18L174.462 132.54C172.836 132.807 171.302 132.987 169.862 133.08C168.422 133.16 166.922 133.2 165.362 133.2H163.862V131.82ZM163.822 121.14H172.182V127.6H165.542V132.34H163.862V126.26H170.502V122.5H163.822V121.14ZM181.201 127.86H197.601V129.14H181.201V127.86ZM183.161 130.58H195.561V134.44H184.841V136.56H183.201V133.3H193.921V131.78H183.161V130.58ZM183.201 136.12H196.141V137.32H183.201V136.12ZM183.281 120H195.501V123.76H184.961V125.72H183.321V122.64H193.861V121.18H183.281V120ZM183.321 125.32H195.821V126.52H183.321V125.32ZM212.564 125.44H214.204V127.88H212.564V125.44ZM213.404 119.68C215.404 119.68 216.964 119.953 218.084 120.5C219.204 121.033 219.764 121.8 219.764 122.8C219.764 123.813 219.204 124.593 218.084 125.14C216.964 125.673 215.404 125.94 213.404 125.94C211.417 125.94 209.857 125.673 208.724 125.14C207.604 124.593 207.044 123.813 207.044 122.8C207.044 121.8 207.604 121.033 208.724 120.5C209.857 119.953 211.417 119.68 213.404 119.68ZM213.404 120.94C212.431 120.94 211.597 121.013 210.904 121.16C210.211 121.307 209.677 121.52 209.304 121.8C208.944 122.067 208.764 122.4 208.764 122.8C208.764 123.2 208.944 123.547 209.304 123.84C209.677 124.12 210.211 124.333 210.904 124.48C211.597 124.613 212.431 124.68 213.404 124.68C214.391 124.68 215.231 124.613 215.924 124.48C216.617 124.333 217.144 124.12 217.504 123.84C217.877 123.547 218.064 123.2 218.064 122.8C218.064 122.4 217.877 122.067 217.504 121.8C217.144 121.52 216.617 121.307 215.924 121.16C215.231 121.013 214.391 120.94 213.404 120.94ZM205.244 127.3H221.584V128.64H205.244V127.3ZM207.224 130.14H219.484V134.24H208.884V136.44H207.264V133.02H217.864V131.42H207.224V130.14ZM207.264 136.06H220.024V137.36H207.264V136.06ZM224.563 126.98H226.003C226.883 126.98 227.696 126.973 228.443 126.96C229.189 126.933 229.903 126.907 230.583 126.88C231.263 126.84 231.929 126.787 232.583 126.72C233.249 126.653 233.929 126.567 234.623 126.46L234.783 127.74C233.836 127.9 232.916 128.02 232.023 128.1C231.143 128.18 230.216 128.233 229.243 128.26C228.283 128.287 227.203 128.3 226.003 128.3H224.563V126.98ZM224.503 120.32H232.783V124.8H226.183V127.6H224.563V123.58H231.163V121.62H224.503V120.32ZM226.763 129.78H238.463V134.08H228.463V136.62H226.823V132.84H236.783V131.08H226.763V129.78ZM226.823 136.04H239.083V137.36H226.823V136.04ZM236.803 119.46H238.463V128.96H236.803V119.46ZM254.581 119.46H256.241V137.56H254.581V119.46ZM255.701 126.92H258.941V128.3H255.701V126.92ZM245.921 121.42H247.461C247.461 122.5 247.394 123.573 247.261 124.64C247.128 125.707 246.901 126.753 246.581 127.78C246.274 128.807 245.848 129.8 245.301 130.76C244.768 131.707 244.094 132.613 243.281 133.48L241.961 132.54C242.694 131.767 243.314 130.953 243.821 130.1C244.341 129.247 244.754 128.36 245.061 127.44C245.368 126.52 245.588 125.573 245.721 124.6C245.854 123.613 245.921 122.613 245.921 121.6V121.42ZM242.541 121.42H246.541V122.8H242.541V121.42ZM250.861 121.42H252.401C252.401 122.513 252.348 123.633 252.241 124.78C252.148 125.927 251.954 127.073 251.661 128.22C251.381 129.367 250.981 130.487 250.461 131.58C249.954 132.673 249.281 133.707 248.441 134.68L247.101 133.76C247.874 132.88 248.501 131.947 248.981 130.96C249.474 129.973 249.854 128.96 250.121 127.92C250.388 126.867 250.574 125.807 250.681 124.74C250.801 123.673 250.861 122.62 250.861 121.58V121.42ZM248.041 121.42H251.521V122.8H248.041V121.42ZM264.459 128.78H266.099V134.18H264.459V128.78ZM271.139 128.78H272.799V134.18H271.139V128.78ZM260.439 133.86H276.839V135.24H260.439V133.86ZM268.599 120.6C269.879 120.6 271.013 120.793 271.999 121.18C272.986 121.567 273.759 122.107 274.319 122.8C274.893 123.493 275.179 124.313 275.179 125.26C275.179 126.193 274.893 127.013 274.319 127.72C273.759 128.413 272.986 128.953 271.999 129.34C271.013 129.713 269.879 129.9 268.599 129.9C267.333 129.9 266.199 129.713 265.199 129.34C264.213 128.953 263.439 128.413 262.879 127.72C262.319 127.013 262.039 126.193 262.039 125.26C262.039 124.313 262.319 123.493 262.879 122.8C263.439 122.107 264.213 121.567 265.199 121.18C266.199 120.793 267.333 120.6 268.599 120.6ZM268.599 121.92C267.639 121.92 266.786 122.06 266.039 122.34C265.293 122.62 264.706 123.013 264.279 123.52C263.853 124.013 263.639 124.593 263.639 125.26C263.639 125.927 263.853 126.513 264.279 127.02C264.706 127.513 265.293 127.9 266.039 128.18C266.786 128.46 267.639 128.6 268.599 128.6C269.573 128.6 270.433 128.46 271.179 128.18C271.926 127.9 272.513 127.513 272.939 127.02C273.366 126.513 273.579 125.927 273.579 125.26C273.579 124.593 273.366 124.013 272.939 123.52C272.513 123.013 271.926 122.62 271.179 122.34C270.433 122.06 269.573 121.92 268.599 121.92ZM281.559 131.909V131.824C281.569 130.92 281.664 130.2 281.844 129.665C282.023 129.13 282.279 128.696 282.611 128.365C282.942 128.034 283.34 127.728 283.804 127.449C284.083 127.278 284.334 127.077 284.557 126.845C284.779 126.608 284.954 126.336 285.082 126.028C285.215 125.721 285.281 125.38 285.281 125.006C285.281 124.542 285.172 124.139 284.954 123.798C284.737 123.457 284.445 123.195 284.081 123.01C283.716 122.825 283.311 122.733 282.866 122.733C282.478 122.733 282.104 122.813 281.744 122.974C281.384 123.135 281.084 123.389 280.842 123.734C280.601 124.08 280.461 124.532 280.423 125.091H278.633C278.671 124.286 278.88 123.597 279.258 123.024C279.642 122.451 280.146 122.013 280.771 121.71C281.401 121.407 282.099 121.256 282.866 121.256C283.7 121.256 284.424 121.421 285.04 121.753C285.66 122.084 286.138 122.539 286.474 123.116C286.815 123.694 286.986 124.352 286.986 125.091C286.986 125.612 286.905 126.083 286.744 126.504C286.588 126.926 286.361 127.302 286.062 127.634C285.769 127.965 285.414 128.259 284.997 128.514C284.58 128.775 284.247 129.049 283.996 129.338C283.745 129.622 283.562 129.961 283.449 130.354C283.335 130.747 283.273 131.237 283.264 131.824V131.909H281.559ZM282.469 136.114C282.118 136.114 281.818 135.988 281.567 135.737C281.316 135.486 281.19 135.186 281.19 134.835C281.19 134.485 281.316 134.184 281.567 133.933C281.818 133.682 282.118 133.557 282.469 133.557C282.819 133.557 283.12 133.682 283.371 133.933C283.622 134.184 283.747 134.485 283.747 134.835C283.747 135.067 283.688 135.28 283.569 135.474C283.456 135.669 283.302 135.825 283.108 135.943C282.918 136.057 282.705 136.114 282.469 136.114Z" fill="#6E4C36"/>
<path d="M221.45 47.4463C223.279 43.7416 228.562 43.7417 230.391 47.4463C231.554 49.8029 233.802 51.4365 236.402 51.8145C240.491 52.4086 242.124 57.4335 239.165 60.3174C237.283 62.1518 236.425 64.7947 236.869 67.3848C237.567 71.4568 233.293 74.5622 229.636 72.6396C227.31 71.4169 224.531 71.4168 222.205 72.6396C218.548 74.5622 214.274 71.4569 214.973 67.3848C215.417 64.7946 214.558 62.1518 212.676 60.3174C209.717 57.4335 211.35 52.4086 215.438 51.8145C218.039 51.4365 220.287 49.8029 221.45 47.4463Z" fill="#FCCB52" stroke="#443623" stroke-width="3"/>
<ellipse cx="230.314" cy="56.8795" rx="1.26715" ry="1.94296" fill="#443623"/>
<path d="M229.046 62.4135C229.046 63.3228 227.647 64.0599 225.921 64.0599C224.195 64.0599 222.795 63.3228 222.795 62.4135C222.795 61.5042 224.195 61.5 225.921 61.5C227.647 61.5 229.046 61.5042 229.046 62.4135Z" fill="#443623"/>
<rect x="171.5" y="71.5" width="28.3296" height="28.3296" rx="8.5" fill="#B0D1B3" stroke="#443623" stroke-width="3"/>
<path d="M188.668 89.0341C188.668 89.9077 187.324 90.6159 185.665 90.6159C184.006 90.6159 182.662 89.9077 182.662 89.0341C182.662 88.1604 184.006 88 185.665 88C187.324 88 188.668 88.1604 188.668 89.0341Z" fill="#443623"/>
<path d="M177 81.5819C177 80.7083 178.344 80.0001 180.003 80.0001C181.662 80.0001 183.006 80.7083 183.006 81.5819C183.006 82.4555 181.662 80.6494 180.003 80.6494C178.344 80.6494 177 82.4555 177 81.5819Z" fill="#443623"/>
<path d="M219.041 57.5579C219.193 56.6975 220.302 56.1739 221.518 56.3883C222.734 56.6028 223.597 57.4741 223.445 58.3344C223.294 59.1948 222.622 57.2422 221.405 57.0278C220.189 56.8134 218.89 58.4182 219.041 57.5579Z" fill="#443623"/>
<path d="M188 81.5819C188 80.7083 189.344 80.0001 191.003 80.0001C192.662 80.0001 194.006 80.7083 194.006 81.5819C194.006 82.4555 192.662 80.6494 191.003 80.6494C189.344 80.6494 188 82.4555 188 81.5819Z" fill="#443623"/>
<path d="M141.007 40.5C149.835 40.5 156.991 47.6566 156.991 56.4844C156.991 65.312 149.835 72.4677 141.007 72.4678C139.104 72.4678 136.733 72.1767 134.279 71.6201C130.917 70.8574 128.629 68.8414 127.252 66.1494C125.856 63.4187 125.385 59.9514 125.828 56.3975C126.725 49.2089 131.22 42.3623 138.054 40.8271C139.007 40.613 139.994 40.5 141.007 40.5Z" fill="#F5C1BA" stroke="#443623" stroke-width="3"/>
<ellipse cx="135.745" cy="52.4272" rx="1.44896" ry="2.22174" fill="#443623"/>
<ellipse cx="145.985" cy="52.4272" rx="1.44896" ry="2.22174" fill="#443623"/>
<path d="M144.535 58.7552C144.535 59.795 142.935 60.6378 140.961 60.6378C138.987 60.6378 137.387 59.795 137.387 58.7552C137.387 57.7155 139.026 58.5 141 58.5C142.974 58.5 144.535 57.7155 144.535 58.7552Z" fill="#443623"/>
<path d="M261.336 70.75C264.608 65.0834 272.787 65.0834 276.059 70.75L282.725 82.2959C285.996 87.9624 281.907 95.0456 275.364 95.0459H262.031C255.488 95.0459 251.398 87.9626 254.67 82.2959L261.336 70.75Z" fill="#9AC6E4" stroke="#462B18" stroke-width="3"/>
<ellipse cx="263.662" cy="78.7807" rx="1.39887" ry="2.14493" fill="#443623"/>
<ellipse cx="273.547" cy="78.7807" rx="1.39887" ry="2.14493" fill="#443623"/>
<path d="M272.148 84.8902C272.148 85.894 270.603 86.7077 268.698 86.7077C266.792 86.7077 265.247 85.894 265.247 84.8902C265.247 83.8864 266.792 85.9616 268.698 85.9616C270.603 85.9616 272.148 83.8864 272.148 84.8902Z" fill="#443623"/>
<rect x="262" y="76" width="3" height="2" fill="#9AC6E4"/>
<rect x="272" y="76" width="3" height="2" fill="#9AC6E4"/>
</g>
<defs>
<filter id="filter0_n_104_55" x="0" y="0" width="412" height="917" filterUnits="userSpaceOnUse" color-interpolation-filters="sRGB">
<feFlood flood-opacity="0" result="BackgroundImageFix"/>
<feBlend mode="normal" in="SourceGraphic" in2="BackgroundImageFix" result="shape"/>
<feTurbulence type="fractalNoise" baseFrequency="2 2" stitchTiles="stitch" numOctaves="3" result="noise" seed="842" />
<feColorMatrix in="noise" type="luminanceToAlpha" result="alphaNoise" />
<feComponentTransfer in="alphaNoise" result="coloredNoise1">
<feFuncA type="discrete" tableValues="1 1 1 1 1 1 1 1 1 1 1 1 1 1 1 1 1 1 1 1 1 1 1 1 1 1 1 1 1 1 1 1 1 1 1 1 1 1 1 1 1 1 1 1 1 1 1 1 1 1 1 0 0 0 0 0 0 0 0 0 0 0 0 0 0 0 0 0 0 0 0 0 0 0 0 0 0 0 0 0 0 0 0 0 0 0 0 0 0 0 0 0 0 0 0 0 0 0 0 0 "/>
</feComponentTransfer>
<feComposite operator="in" in2="shape" in="coloredNoise1" result="noise1Clipped" />
<feFlood flood-color="rgba(0, 0, 0, 0.25)" result="color1Flood" />
<feComposite operator="in" in2="noise1Clipped" in="color1Flood" result="color1" />
<feMerge result="effect1_noise_104_55">
<feMergeNode in="shape" />
<feMergeNode in="color1" />
</feMerge>
</filter>
<clipPath id="clip0_104_55">
<rect width="412" height="917" fill="white"/>
</clipPath>
</defs>
</svg>
