<svg width="95" height="85" viewBox="0 0 95 85" fill="none" xmlns="http://www.w3.org/2000/svg">
<path d="M51.8701 1.5C74.4253 1.5 92.71 19.7846 92.71 42.3398C92.71 64.8951 74.4253 83.1797 51.8701 83.1797C44.5269 83.1797 34.6525 81.4675 25.6113 78.4043C16.5061 75.3194 8.58222 70.9761 4.81445 65.9287C0.628227 60.3204 1.64837 53.2324 5.06836 45.417C8.49593 37.5843 13.9764 29.7673 17.9824 22.7656C25.0929 10.3378 37.5302 1.50009 51.8701 1.5Z" fill="#F5C1BA" stroke="#443623" stroke-width="3"/>
<ellipse cx="39.5088" cy="17.3802" rx="3.50883" ry="5.3802" fill="#443623"/>
<ellipse cx="64.3057" cy="17.3802" rx="3.50883" ry="5.3802" fill="#443623"/>
<path d="M43.0001 33.5594C43.0001 31.0416 46.8751 29.0005 51.6552 29.0005C56.4353 29.0005 60.3103 31.0416 60.3103 33.5594C60.3103 36.0773 56.4353 42.5 51.6552 42.5C46.8751 42.5 43.0001 36.0773 43.0001 33.5594Z" fill="#443623"/>
</svg>
