<svg width="103" height="103" viewBox="0 0 103 103" fill="none" xmlns="http://www.w3.org/2000/svg">
<path d="M44.1387 15.75C47.4103 10.0833 55.5897 10.0833 58.8613 15.75L86.1406 63C89.4122 68.6665 85.3233 75.7497 78.7803 75.75H24.2197C17.6767 75.7497 13.5878 68.6665 16.8594 63L44.1387 15.75Z" fill="#9AC6E4" stroke="#462B18" stroke-width="3"/>
<ellipse cx="41.601" cy="33.9882" rx="2.60101" ry="3.98822" fill="#443623"/>
<ellipse cx="59.9809" cy="33.9882" rx="2.60101" ry="3.98822" fill="#443623"/>
<path d="M57.8316 41.6447C57.8316 43.5112 54.9592 45.0242 51.4158 45.0242C47.8725 45.0242 45 43.5112 45 41.6447C45 39.7783 47.8725 42.5586 51.4158 42.5586C54.9592 42.5586 57.8316 39.7783 57.8316 41.6447Z" fill="#443623"/>
</svg>
