<svg width="111" height="111" viewBox="0 0 111 111" fill="none" xmlns="http://www.w3.org/2000/svg">
<path d="M43.75 26.8164C48.4794 17.2336 62.1446 17.2336 66.874 26.8164C69.1891 31.5068 73.6636 34.7585 78.8398 35.5107C89.4151 37.0474 93.6377 50.0428 85.9854 57.502C82.2397 61.1531 80.5309 66.4139 81.415 71.5693C83.2215 82.1018 72.1668 90.1337 62.708 85.1611C58.0779 82.727 52.5461 82.727 47.916 85.1611C38.4572 90.1339 27.4025 82.1019 29.209 71.5693C30.0931 66.4138 28.3834 61.1531 24.6377 57.502C16.9857 50.0428 21.2083 37.0477 31.7832 35.5107C36.9597 34.7586 41.4349 31.507 43.75 26.8164Z" fill="#FCCB52" stroke="#443623" stroke-width="3"/>
<path d="M61.8748 52.3459C61.8748 54.3638 58.7689 56 54.9374 56C51.106 56 48 54.3638 48 52.3459C48 50.3279 51.106 54 54.9374 54C58.7689 54 61.8748 50.3279 61.8748 52.3459Z" fill="#443623"/>
<path d="M35.8405 43.4259C36.1909 41.4386 39.5339 40.3666 43.3071 41.0319C47.0803 41.6972 49.855 43.8479 49.5046 45.8352C49.1542 47.8225 46.733 43.6669 42.9598 43.0015C39.1866 42.3362 35.4901 45.4132 35.8405 43.4259Z" fill="#443623"/>
<path d="M59.6346 46.0082C59.2842 44.0209 62.0589 41.8702 65.8321 41.2049C69.6053 40.5396 72.9482 41.6116 73.2986 43.5989C73.6491 45.5862 69.9526 42.5092 66.1794 43.1745C62.4062 43.8399 59.985 47.9955 59.6346 46.0082Z" fill="#443623"/>
</svg>
