<svg width="83" height="83" viewBox="0 0 83 83" fill="none" xmlns="http://www.w3.org/2000/svg">
<rect x="1.5" y="1.5" width="80" height="80" rx="8.5" fill="#B0D1B3" stroke="#443623" stroke-width="3"/>
<path d="M48.9119 38.4262C48.9119 40.7407 45.3499 47 40.956 47C36.562 47 33 40.7407 33 38.4262C33 36.1118 36.562 38.4258 40.956 38.4258C45.3499 38.4258 48.9119 36.1118 48.9119 38.4262Z" fill="#443623"/>
<path d="M16.9999 26.1911C16.9999 23.8766 20.562 22.0004 24.9559 22.0004C29.3499 22.0004 32.9119 23.8766 32.9119 26.1911C32.9119 28.5055 29.3499 26.1916 24.9559 26.1916C20.562 26.1916 16.9999 28.5055 16.9999 26.1911Z" fill="#443623"/>
<path d="M48.9999 26.1911C48.9999 23.8766 52.562 22.0004 56.9559 22.0004C61.3499 22.0004 64.9119 23.8766 64.9119 26.1911C64.9119 28.5055 61.3499 26.1916 56.9559 26.1916C52.562 26.1916 48.9999 28.5055 48.9999 26.1911Z" fill="#443623"/>
</svg>
